<mxfile host="65bd71144e">
    <diagram id="tPGoLKyi_iXhO9vlurZc" name="Page-1">
        <mxGraphModel dx="2319" dy="381" grid="0" gridSize="10" guides="1" tooltips="1" connect="1" arrows="1" fold="1" page="1" pageScale="1" pageWidth="850" pageHeight="1100" math="0" shadow="0">
            <root>
                <mxCell id="0"/>
                <mxCell id="1" parent="0"/>
                <mxCell id="2" style="edgeStyle=none;html=1;exitX=0.5;exitY=1;exitDx=0;exitDy=0;exitPerimeter=0;" parent="1" source="3" edge="1">
                    <mxGeometry relative="1" as="geometry">
                        <mxPoint x="1380" y="410" as="targetPoint"/>
                    </mxGeometry>
                </mxCell>
                <mxCell id="3" value="&lt;font style=&quot;font-size: 10px;&quot;&gt;Start&lt;/font&gt;" style="strokeWidth=2;html=1;shape=mxgraph.flowchart.start_1;whiteSpace=wrap;" parent="1" vertex="1">
                    <mxGeometry x="1340" y="367.5" width="80" height="22.5" as="geometry"/>
                </mxCell>
                <mxCell id="4" style="edgeStyle=none;html=1;exitX=0.5;exitY=1;exitDx=0;exitDy=0;" parent="1" source="5" edge="1">
                    <mxGeometry relative="1" as="geometry">
                        <mxPoint x="1380.1111111111113" y="460" as="targetPoint"/>
                    </mxGeometry>
                </mxCell>
                <mxCell id="5" value="&lt;font style=&quot;font-size: 10px;&quot;&gt;Pick up card from draw pile&lt;/font&gt;" style="rounded=1;whiteSpace=wrap;html=1;absoluteArcSize=1;arcSize=14;strokeWidth=2;" parent="1" vertex="1">
                    <mxGeometry x="1340" y="410" width="80" height="30" as="geometry"/>
                </mxCell>
                <mxCell id="6" style="edgeStyle=none;html=1;exitX=0.5;exitY=1;exitDx=0;exitDy=0;" parent="1" source="7" edge="1">
                    <mxGeometry relative="1" as="geometry">
                        <mxPoint x="1380.1111111111113" y="510" as="targetPoint"/>
                    </mxGeometry>
                </mxCell>
                <mxCell id="7" value="&lt;font style=&quot;font-size: 10px;&quot;&gt;Read card from camera&lt;/font&gt;" style="rounded=1;whiteSpace=wrap;html=1;absoluteArcSize=1;arcSize=14;strokeWidth=2;" parent="1" vertex="1">
                    <mxGeometry x="1340" y="460" width="80" height="30" as="geometry"/>
                </mxCell>
                <mxCell id="8" style="edgeStyle=none;html=1;exitX=0.5;exitY=1;exitDx=0;exitDy=0;entryX=0.5;entryY=0;entryDx=0;entryDy=0;entryPerimeter=0;" parent="1" source="9" target="12" edge="1">
                    <mxGeometry relative="1" as="geometry"/>
                </mxCell>
                <mxCell id="9" value="&lt;font style=&quot;font-size: 10px;&quot;&gt;Place card in deck&lt;/font&gt;" style="rounded=1;whiteSpace=wrap;html=1;absoluteArcSize=1;arcSize=14;strokeWidth=2;" parent="1" vertex="1">
                    <mxGeometry x="1340" y="510" width="80" height="30" as="geometry"/>
                </mxCell>
                <mxCell id="10" style="edgeStyle=none;html=1;exitX=1;exitY=0.5;exitDx=0;exitDy=0;exitPerimeter=0;entryX=1;entryY=0.5;entryDx=0;entryDy=0;" parent="1" source="12" target="5" edge="1">
                    <mxGeometry relative="1" as="geometry">
                        <Array as="points">
                            <mxPoint x="1450" y="605"/>
                            <mxPoint x="1450" y="425"/>
                        </Array>
                    </mxGeometry>
                </mxCell>
                <mxCell id="11" style="edgeStyle=none;html=1;exitX=0.5;exitY=1;exitDx=0;exitDy=0;exitPerimeter=0;entryX=0.5;entryY=0;entryDx=0;entryDy=0;" parent="1" source="12" target="110" edge="1">
                    <mxGeometry relative="1" as="geometry">
                        <mxPoint x="1376.634" y="673.2860000000001" as="targetPoint"/>
                        <mxPoint x="1381.5" y="630" as="sourcePoint"/>
                    </mxGeometry>
                </mxCell>
                <mxCell id="12" value="&lt;font style=&quot;font-size: 10px;&quot;&gt;Is card in &lt;br&gt;deck =7?&lt;/font&gt;" style="strokeWidth=2;html=1;shape=mxgraph.flowchart.decision;whiteSpace=wrap;" parent="1" vertex="1">
                    <mxGeometry x="1338.5" y="560" width="84.5" height="90" as="geometry"/>
                </mxCell>
                <mxCell id="14" style="edgeStyle=none;html=1;exitX=0.5;exitY=1;exitDx=0;exitDy=0;entryX=0.5;entryY=0;entryDx=0;entryDy=0;entryPerimeter=0;" parent="1" source="15" target="18" edge="1">
                    <mxGeometry relative="1" as="geometry"/>
                </mxCell>
                <mxCell id="15" value="&lt;font style=&quot;font-size: 10px;&quot;&gt;Read card from camera&lt;/font&gt;" style="rounded=1;whiteSpace=wrap;html=1;absoluteArcSize=1;arcSize=14;strokeWidth=2;" parent="1" vertex="1">
                    <mxGeometry x="1341.5" y="1020" width="80" height="30" as="geometry"/>
                </mxCell>
                <mxCell id="16" style="edgeStyle=none;html=1;exitX=0.5;exitY=1;exitDx=0;exitDy=0;exitPerimeter=0;fontFamily=Times New Roman;fontSize=10;entryX=0.5;entryY=0;entryDx=0;entryDy=0;entryPerimeter=0;" parent="1" source="18" target="22" edge="1">
                    <mxGeometry relative="1" as="geometry">
                        <mxPoint x="1382" y="1200" as="targetPoint"/>
                    </mxGeometry>
                </mxCell>
                <mxCell id="17" style="edgeStyle=none;html=1;exitX=0;exitY=0.5;exitDx=0;exitDy=0;exitPerimeter=0;strokeColor=#000000;fontSize=10;entryX=0;entryY=0.5;entryDx=0;entryDy=0;" parent="1" source="18" target="112" edge="1">
                    <mxGeometry relative="1" as="geometry">
                        <mxPoint x="1160" y="978.3103448275863" as="targetPoint"/>
                        <Array as="points">
                            <mxPoint x="1160" y="1130"/>
                            <mxPoint x="1160" y="978"/>
                            <mxPoint x="1160" y="705"/>
                        </Array>
                    </mxGeometry>
                </mxCell>
                <mxCell id="18" value="&lt;font style=&quot;font-size: 10px;&quot;&gt;is card a skip/reverse?&lt;/font&gt;" style="strokeWidth=2;html=1;shape=mxgraph.flowchart.decision;whiteSpace=wrap;" parent="1" vertex="1">
                    <mxGeometry x="1340.75" y="1083" width="80.5" height="90" as="geometry"/>
                </mxCell>
                <mxCell id="19" value="Yes" style="text;html=1;strokeColor=none;fillColor=none;align=center;verticalAlign=middle;whiteSpace=wrap;rounded=0;" parent="1" vertex="1">
                    <mxGeometry x="1282.5" y="1103" width="56" height="13" as="geometry"/>
                </mxCell>
                <mxCell id="20" style="edgeStyle=none;html=1;exitX=0.5;exitY=1;exitDx=0;exitDy=0;exitPerimeter=0;entryX=0.5;entryY=0;entryDx=0;entryDy=0;entryPerimeter=0;strokeColor=#000000;" parent="1" source="22" target="26" edge="1">
                    <mxGeometry relative="1" as="geometry"/>
                </mxCell>
                <mxCell id="21" style="edgeStyle=none;html=1;exitX=0;exitY=0.5;exitDx=0;exitDy=0;exitPerimeter=0;entryX=1;entryY=0.5;entryDx=0;entryDy=0;strokeColor=#000000;" parent="1" source="22" target="29" edge="1">
                    <mxGeometry relative="1" as="geometry"/>
                </mxCell>
                <mxCell id="22" value="&lt;font style=&quot;font-size: 10px;&quot;&gt;is card a &lt;br&gt;+2?&lt;/font&gt;" style="strokeWidth=2;html=1;shape=mxgraph.flowchart.decision;whiteSpace=wrap;" parent="1" vertex="1">
                    <mxGeometry x="1340.5" y="1203" width="80.5" height="90" as="geometry"/>
                </mxCell>
                <mxCell id="23" value="No" style="text;html=1;strokeColor=none;fillColor=none;align=center;verticalAlign=middle;whiteSpace=wrap;rounded=0;" parent="1" vertex="1">
                    <mxGeometry x="1338.5" y="1176" width="56" height="13" as="geometry"/>
                </mxCell>
                <mxCell id="24" style="edgeStyle=none;html=1;entryX=1;entryY=0.5;entryDx=0;entryDy=0;strokeColor=#000000;" parent="1" source="26" target="36" edge="1">
                    <mxGeometry relative="1" as="geometry"/>
                </mxCell>
                <mxCell id="25" style="edgeStyle=none;html=1;exitX=0.5;exitY=1;exitDx=0;exitDy=0;exitPerimeter=0;strokeColor=#000000;entryX=0.5;entryY=0;entryDx=0;entryDy=0;entryPerimeter=0;" parent="1" source="26" target="44" edge="1">
                    <mxGeometry relative="1" as="geometry">
                        <mxPoint x="1382" y="1590" as="targetPoint"/>
                    </mxGeometry>
                </mxCell>
                <mxCell id="26" value="&lt;font style=&quot;font-size: 10px;&quot;&gt;is card a &lt;br&gt;+4?&lt;/font&gt;" style="strokeWidth=2;html=1;shape=mxgraph.flowchart.decision;whiteSpace=wrap;" parent="1" vertex="1">
                    <mxGeometry x="1340.5" y="1480" width="80.5" height="90" as="geometry"/>
                </mxCell>
                <mxCell id="27" value="No" style="text;html=1;strokeColor=none;fillColor=none;align=center;verticalAlign=middle;whiteSpace=wrap;rounded=0;" parent="1" vertex="1">
                    <mxGeometry x="1338.5" y="1313" width="56" height="13" as="geometry"/>
                </mxCell>
                <mxCell id="28" style="edgeStyle=none;html=1;exitX=0.5;exitY=1;exitDx=0;exitDy=0;" parent="1" source="29" edge="1">
                    <mxGeometry relative="1" as="geometry">
                        <mxPoint x="1270.1111111111113" y="1283" as="targetPoint"/>
                    </mxGeometry>
                </mxCell>
                <mxCell id="29" value="&lt;font style=&quot;font-size: 10px;&quot;&gt;Pick up card from draw pile&lt;/font&gt;" style="rounded=1;whiteSpace=wrap;html=1;absoluteArcSize=1;arcSize=14;strokeWidth=2;" parent="1" vertex="1">
                    <mxGeometry x="1230" y="1233" width="80" height="30" as="geometry"/>
                </mxCell>
                <mxCell id="30" style="edgeStyle=none;html=1;exitX=0.5;exitY=1;exitDx=0;exitDy=0;" parent="1" source="31" edge="1">
                    <mxGeometry relative="1" as="geometry">
                        <mxPoint x="1270.1111111111113" y="1333" as="targetPoint"/>
                    </mxGeometry>
                </mxCell>
                <mxCell id="31" value="&lt;font style=&quot;font-size: 10px;&quot;&gt;Read card from camera&lt;/font&gt;" style="rounded=1;whiteSpace=wrap;html=1;absoluteArcSize=1;arcSize=14;strokeWidth=2;" parent="1" vertex="1">
                    <mxGeometry x="1230" y="1283" width="80" height="30" as="geometry"/>
                </mxCell>
                <mxCell id="32" style="edgeStyle=none;html=1;exitX=0.5;exitY=1;exitDx=0;exitDy=0;entryX=0.5;entryY=0;entryDx=0;entryDy=0;entryPerimeter=0;strokeColor=#000000;" parent="1" source="33" target="52" edge="1">
                    <mxGeometry relative="1" as="geometry"/>
                </mxCell>
                <mxCell id="33" value="&lt;font style=&quot;font-size: 10px;&quot;&gt;Place card in deck&lt;/font&gt;" style="rounded=1;whiteSpace=wrap;html=1;absoluteArcSize=1;arcSize=14;strokeWidth=2;" parent="1" vertex="1">
                    <mxGeometry x="1230" y="1333" width="80" height="27" as="geometry"/>
                </mxCell>
                <mxCell id="34" value="Yes" style="text;html=1;strokeColor=none;fillColor=none;align=center;verticalAlign=middle;whiteSpace=wrap;rounded=0;" parent="1" vertex="1">
                    <mxGeometry x="1306.5" y="1230" width="56" height="13" as="geometry"/>
                </mxCell>
                <mxCell id="35" style="edgeStyle=none;html=1;exitX=0.5;exitY=1;exitDx=0;exitDy=0;" parent="1" source="36" edge="1">
                    <mxGeometry relative="1" as="geometry">
                        <mxPoint x="1266.6111111111113" y="1560" as="targetPoint"/>
                    </mxGeometry>
                </mxCell>
                <mxCell id="36" value="&lt;font style=&quot;font-size: 10px;&quot;&gt;Pick up card from draw pile&lt;/font&gt;" style="rounded=1;whiteSpace=wrap;html=1;absoluteArcSize=1;arcSize=14;strokeWidth=2;" parent="1" vertex="1">
                    <mxGeometry x="1226.5" y="1510" width="80" height="30" as="geometry"/>
                </mxCell>
                <mxCell id="37" style="edgeStyle=none;html=1;exitX=0.5;exitY=1;exitDx=0;exitDy=0;" parent="1" source="38" edge="1">
                    <mxGeometry relative="1" as="geometry">
                        <mxPoint x="1266.6111111111113" y="1610" as="targetPoint"/>
                    </mxGeometry>
                </mxCell>
                <mxCell id="38" value="&lt;font style=&quot;font-size: 10px;&quot;&gt;Read card from camera&lt;/font&gt;" style="rounded=1;whiteSpace=wrap;html=1;absoluteArcSize=1;arcSize=14;strokeWidth=2;" parent="1" vertex="1">
                    <mxGeometry x="1226.5" y="1560" width="80" height="30" as="geometry"/>
                </mxCell>
                <mxCell id="39" style="edgeStyle=none;html=1;exitX=0.5;exitY=1;exitDx=0;exitDy=0;entryX=0.5;entryY=0;entryDx=0;entryDy=0;entryPerimeter=0;strokeColor=#000000;" parent="1" source="40" target="56" edge="1">
                    <mxGeometry relative="1" as="geometry"/>
                </mxCell>
                <mxCell id="40" value="&lt;font style=&quot;font-size: 10px;&quot;&gt;Place card in deck&lt;/font&gt;" style="rounded=1;whiteSpace=wrap;html=1;absoluteArcSize=1;arcSize=14;strokeWidth=2;" parent="1" vertex="1">
                    <mxGeometry x="1226.5" y="1610" width="80" height="30" as="geometry"/>
                </mxCell>
                <mxCell id="41" style="edgeStyle=none;html=1;strokeColor=#000000;exitX=0.5;exitY=1;exitDx=0;exitDy=0;exitPerimeter=0;entryX=0;entryY=0.5;entryDx=0;entryDy=0;" parent="1" source="56" target="112" edge="1">
                    <mxGeometry relative="1" as="geometry">
                        <mxPoint x="1290" y="774" as="targetPoint"/>
                        <mxPoint x="1267" y="1640" as="sourcePoint"/>
                        <Array as="points">
                            <mxPoint x="1160" y="1750"/>
                            <mxPoint x="1160" y="1630"/>
                            <mxPoint x="1160" y="1510"/>
                            <mxPoint x="1160" y="813"/>
                            <mxPoint x="1160" y="705"/>
                        </Array>
                    </mxGeometry>
                </mxCell>
                <mxCell id="42" style="edgeStyle=none;html=1;exitX=1;exitY=0.5;exitDx=0;exitDy=0;exitPerimeter=0;entryX=0;entryY=0.5;entryDx=0;entryDy=0;strokeColor=#000000;" parent="1" source="44" target="46" edge="1">
                    <mxGeometry relative="1" as="geometry"/>
                </mxCell>
                <mxCell id="43" style="edgeStyle=none;html=1;exitX=0.5;exitY=1;exitDx=0;exitDy=0;exitPerimeter=0;strokeColor=#000000;" parent="1" source="44" target="62" edge="1">
                    <mxGeometry relative="1" as="geometry"/>
                </mxCell>
                <mxCell id="44" value="&lt;font style=&quot;font-size: 10px;&quot;&gt;is card a &lt;br&gt;wild card?&lt;/font&gt;" style="strokeWidth=2;html=1;shape=mxgraph.flowchart.decision;whiteSpace=wrap;" parent="1" vertex="1">
                    <mxGeometry x="1341.25" y="1610" width="80.5" height="90" as="geometry"/>
                </mxCell>
                <mxCell id="205" style="edgeStyle=none;html=1;exitX=0.5;exitY=1;exitDx=0;exitDy=0;entryX=0.5;entryY=0;entryDx=0;entryDy=0;fontSize=8;" parent="1" source="46" target="206" edge="1">
                    <mxGeometry relative="1" as="geometry">
                        <mxPoint x="1504.0100000000002" y="1760" as="targetPoint"/>
                    </mxGeometry>
                </mxCell>
                <mxCell id="46" value="&lt;div style=&quot;&quot;&gt;&lt;span style=&quot;font-size: 10px; background-color: initial;&quot;&gt;Ask user&lt;/span&gt;&lt;/div&gt;&lt;span style=&quot;font-size: 10px;&quot;&gt;&lt;div style=&quot;&quot;&gt;&lt;span style=&quot;background-color: initial;&quot;&gt;which colour to use&amp;nbsp;&lt;/span&gt;&lt;/div&gt;&lt;/span&gt;" style="shape=parallelogram;html=1;strokeWidth=2;perimeter=parallelogramPerimeter;whiteSpace=wrap;rounded=1;arcSize=12;size=0.23;align=center;" parent="1" vertex="1">
                    <mxGeometry x="1440" y="1635" width="130" height="40" as="geometry"/>
                </mxCell>
                <mxCell id="47" value="No" style="text;html=1;strokeColor=none;fillColor=none;align=center;verticalAlign=middle;whiteSpace=wrap;rounded=0;" parent="1" vertex="1">
                    <mxGeometry x="1338.5" y="1577" width="56" height="13" as="geometry"/>
                </mxCell>
                <mxCell id="48" value="Yes" style="text;html=1;strokeColor=none;fillColor=none;align=center;verticalAlign=middle;whiteSpace=wrap;rounded=0;" parent="1" vertex="1">
                    <mxGeometry x="1302" y="1510" width="56" height="13" as="geometry"/>
                </mxCell>
                <mxCell id="49" value="No" style="text;html=1;strokeColor=none;fillColor=none;align=center;verticalAlign=middle;whiteSpace=wrap;rounded=0;" parent="1" vertex="1">
                    <mxGeometry x="1404" y="580" width="56" height="13" as="geometry"/>
                </mxCell>
                <mxCell id="50" style="edgeStyle=none;html=1;exitX=0;exitY=0.5;exitDx=0;exitDy=0;exitPerimeter=0;entryX=0;entryY=0.5;entryDx=0;entryDy=0;strokeColor=#000000;" parent="1" source="52" target="29" edge="1">
                    <mxGeometry relative="1" as="geometry">
                        <Array as="points">
                            <mxPoint x="1190" y="1425"/>
                            <mxPoint x="1190" y="1250"/>
                        </Array>
                    </mxGeometry>
                </mxCell>
                <mxCell id="51" style="edgeStyle=none;html=1;exitX=0.5;exitY=1;exitDx=0;exitDy=0;exitPerimeter=0;strokeColor=#000000;entryX=0;entryY=0.5;entryDx=0;entryDy=0;" parent="1" source="52" target="112" edge="1">
                    <mxGeometry relative="1" as="geometry">
                        <mxPoint x="1160" y="1340" as="targetPoint"/>
                        <Array as="points">
                            <mxPoint x="1160" y="1470"/>
                            <mxPoint x="1160" y="1340"/>
                            <mxPoint x="1160" y="813"/>
                            <mxPoint x="1160" y="705"/>
                        </Array>
                    </mxGeometry>
                </mxCell>
                <mxCell id="52" value="&lt;span style=&quot;font-size: 10px;&quot;&gt;Did robot&lt;br&gt;pick 2 cards?&lt;/span&gt;" style="strokeWidth=2;html=1;shape=mxgraph.flowchart.decision;whiteSpace=wrap;" parent="1" vertex="1">
                    <mxGeometry x="1229.5" y="1380" width="80.5" height="90" as="geometry"/>
                </mxCell>
                <mxCell id="53" value="Yes" style="text;html=1;strokeColor=none;fillColor=none;align=center;verticalAlign=middle;whiteSpace=wrap;rounded=0;" parent="1" vertex="1">
                    <mxGeometry x="1254" y="1470" width="56" height="13" as="geometry"/>
                </mxCell>
                <mxCell id="54" value="No" style="text;html=1;strokeColor=none;fillColor=none;align=center;verticalAlign=middle;whiteSpace=wrap;rounded=0;" parent="1" vertex="1">
                    <mxGeometry x="1184" y="1410" width="56" height="13" as="geometry"/>
                </mxCell>
                <mxCell id="55" style="edgeStyle=none;html=1;exitX=0;exitY=0.5;exitDx=0;exitDy=0;exitPerimeter=0;entryX=0;entryY=0.5;entryDx=0;entryDy=0;strokeColor=#000000;" parent="1" source="56" target="36" edge="1">
                    <mxGeometry relative="1" as="geometry">
                        <Array as="points">
                            <mxPoint x="1200" y="1705"/>
                            <mxPoint x="1200" y="1525"/>
                        </Array>
                    </mxGeometry>
                </mxCell>
                <mxCell id="56" value="&lt;span style=&quot;font-size: 10px;&quot;&gt;Did robot&lt;br&gt;pick 4 cards?&lt;/span&gt;" style="strokeWidth=2;html=1;shape=mxgraph.flowchart.decision;whiteSpace=wrap;" parent="1" vertex="1">
                    <mxGeometry x="1226.25" y="1660" width="80.5" height="90" as="geometry"/>
                </mxCell>
                <mxCell id="57" value="Yes" style="text;html=1;strokeColor=none;fillColor=none;align=center;verticalAlign=middle;whiteSpace=wrap;rounded=0;" parent="1" vertex="1">
                    <mxGeometry x="1260" y="1750" width="56" height="13" as="geometry"/>
                </mxCell>
                <mxCell id="58" value="No" style="text;html=1;strokeColor=none;fillColor=none;align=center;verticalAlign=middle;whiteSpace=wrap;rounded=0;" parent="1" vertex="1">
                    <mxGeometry x="1184" y="1707" width="56" height="13" as="geometry"/>
                </mxCell>
                <mxCell id="59" value="Yes" style="text;html=1;strokeColor=none;fillColor=none;align=center;verticalAlign=middle;whiteSpace=wrap;rounded=0;" parent="1" vertex="1">
                    <mxGeometry x="1404" y="1635" width="56" height="13" as="geometry"/>
                </mxCell>
                <mxCell id="61" style="edgeStyle=none;html=1;exitX=0;exitY=0.5;exitDx=0;exitDy=0;exitPerimeter=0;strokeColor=#000000;entryX=0.5;entryY=0;entryDx=0;entryDy=0;" parent="1" source="62" target="65" edge="1">
                    <mxGeometry relative="1" as="geometry">
                        <mxPoint x="1269.75" y="1850" as="targetPoint"/>
                        <Array as="points">
                            <mxPoint x="1270" y="1825"/>
                        </Array>
                    </mxGeometry>
                </mxCell>
                <mxCell id="124" style="edgeStyle=none;html=1;exitX=0.5;exitY=1;exitDx=0;exitDy=0;exitPerimeter=0;entryX=0.5;entryY=0;entryDx=0;entryDy=0;" parent="1" source="62" target="122" edge="1">
                    <mxGeometry relative="1" as="geometry"/>
                </mxCell>
                <mxCell id="62" value="&lt;span style=&quot;font-size: 10px;&quot;&gt;can robot play &lt;br&gt;a card?&lt;/span&gt;" style="strokeWidth=2;html=1;shape=mxgraph.flowchart.decision;whiteSpace=wrap;" parent="1" vertex="1">
                    <mxGeometry x="1344.5" y="1780" width="77.5" height="90" as="geometry"/>
                </mxCell>
                <mxCell id="63" value="No" style="text;html=1;strokeColor=none;fillColor=none;align=center;verticalAlign=middle;whiteSpace=wrap;rounded=0;" parent="1" vertex="1">
                    <mxGeometry x="1340" y="1720" width="56" height="13" as="geometry"/>
                </mxCell>
                <mxCell id="64" style="edgeStyle=none;html=1;exitX=0.5;exitY=1;exitDx=0;exitDy=0;" parent="1" source="65" edge="1">
                    <mxGeometry relative="1" as="geometry">
                        <mxPoint x="1270.1111111111113" y="1900" as="targetPoint"/>
                    </mxGeometry>
                </mxCell>
                <mxCell id="65" value="&lt;font style=&quot;font-size: 10px;&quot;&gt;Pick up card from draw pile&lt;/font&gt;" style="rounded=1;whiteSpace=wrap;html=1;absoluteArcSize=1;arcSize=14;strokeWidth=2;" parent="1" vertex="1">
                    <mxGeometry x="1230" y="1850" width="80" height="30" as="geometry"/>
                </mxCell>
                <mxCell id="66" style="edgeStyle=none;html=1;exitX=0.5;exitY=1;exitDx=0;exitDy=0;entryX=0.5;entryY=0;entryDx=0;entryDy=0;entryPerimeter=0;" parent="1" source="67" target="70" edge="1">
                    <mxGeometry relative="1" as="geometry">
                        <mxPoint x="1270.111111111111" y="1950.0000000000002" as="targetPoint"/>
                    </mxGeometry>
                </mxCell>
                <mxCell id="67" value="&lt;font style=&quot;font-size: 10px;&quot;&gt;Read card from camera&lt;/font&gt;" style="rounded=1;whiteSpace=wrap;html=1;absoluteArcSize=1;arcSize=14;strokeWidth=2;" parent="1" vertex="1">
                    <mxGeometry x="1230" y="1900" width="80" height="30" as="geometry"/>
                </mxCell>
                <mxCell id="68" style="edgeStyle=none;html=1;exitX=0.5;exitY=1;exitDx=0;exitDy=0;exitPerimeter=0;entryX=0.5;entryY=0;entryDx=0;entryDy=0;strokeColor=#000000;" parent="1" source="70" target="72" edge="1">
                    <mxGeometry relative="1" as="geometry"/>
                </mxCell>
                <mxCell id="125" style="edgeStyle=none;html=1;exitX=1;exitY=0.5;exitDx=0;exitDy=0;exitPerimeter=0;entryX=0;entryY=0.5;entryDx=0;entryDy=0;entryPerimeter=0;" parent="1" source="70" target="77" edge="1">
                    <mxGeometry relative="1" as="geometry"/>
                </mxCell>
                <mxCell id="70" value="&lt;span style=&quot;font-size: 10px;&quot;&gt;can robot play &lt;br&gt;the card?&lt;/span&gt;" style="strokeWidth=2;html=1;shape=mxgraph.flowchart.decision;whiteSpace=wrap;" parent="1" vertex="1">
                    <mxGeometry x="1231" y="1950" width="78.75" height="90" as="geometry"/>
                </mxCell>
                <mxCell id="71" style="edgeStyle=none;html=1;exitX=0;exitY=0.5;exitDx=0;exitDy=0;strokeColor=#000000;entryX=0;entryY=0.5;entryDx=0;entryDy=0;" parent="1" source="72" target="112" edge="1">
                    <mxGeometry relative="1" as="geometry">
                        <mxPoint x="1290" y="774" as="targetPoint"/>
                        <Array as="points">
                            <mxPoint x="1160" y="2085"/>
                            <mxPoint x="1160" y="1935"/>
                            <mxPoint x="1160" y="813"/>
                            <mxPoint x="1160" y="705"/>
                        </Array>
                    </mxGeometry>
                </mxCell>
                <mxCell id="72" value="&lt;span style=&quot;font-size: 10px;&quot;&gt;Place card in deck&lt;/span&gt;" style="rounded=1;whiteSpace=wrap;html=1;absoluteArcSize=1;arcSize=14;strokeWidth=2;" parent="1" vertex="1">
                    <mxGeometry x="1230" y="2070" width="80" height="30" as="geometry"/>
                </mxCell>
                <mxCell id="73" value="No" style="text;html=1;strokeColor=none;fillColor=none;align=center;verticalAlign=middle;whiteSpace=wrap;rounded=0;" parent="1" vertex="1">
                    <mxGeometry x="1226.25" y="2047" width="63.75" height="13" as="geometry"/>
                </mxCell>
                <mxCell id="74" value="No" style="text;html=1;strokeColor=none;fillColor=none;align=center;verticalAlign=middle;whiteSpace=wrap;rounded=0;" parent="1" vertex="1">
                    <mxGeometry x="1282.5" y="1810" width="56" height="13" as="geometry"/>
                </mxCell>
                <mxCell id="75" style="edgeStyle=none;html=1;exitX=0.5;exitY=1;exitDx=0;exitDy=0;exitPerimeter=0;fontFamily=Times New Roman;fontSize=10;entryX=0.5;entryY=0;entryDx=0;entryDy=0;entryPerimeter=0;" parent="1" source="77" target="80" edge="1">
                    <mxGeometry relative="1" as="geometry">
                        <mxPoint x="1384.37" y="2080" as="targetPoint"/>
                    </mxGeometry>
                </mxCell>
                <mxCell id="117" style="edgeStyle=none;html=1;exitX=1;exitY=0.5;exitDx=0;exitDy=0;exitPerimeter=0;entryX=0;entryY=0.5;entryDx=0;entryDy=0;" parent="1" source="77" target="121" edge="1">
                    <mxGeometry relative="1" as="geometry">
                        <mxPoint x="1468.4499999999998" y="2011" as="targetPoint"/>
                    </mxGeometry>
                </mxCell>
                <mxCell id="77" value="&lt;font style=&quot;font-size: 10px;&quot;&gt;is card a skip/reverse?&lt;/font&gt;" style="strokeWidth=2;html=1;shape=mxgraph.flowchart.decision;whiteSpace=wrap;" parent="1" vertex="1">
                    <mxGeometry x="1343" y="1950" width="80.5" height="90" as="geometry"/>
                </mxCell>
                <mxCell id="78" style="edgeStyle=none;html=1;exitX=0.5;exitY=1;exitDx=0;exitDy=0;exitPerimeter=0;entryX=0.5;entryY=0;entryDx=0;entryDy=0;entryPerimeter=0;strokeColor=#000000;" parent="1" source="80" target="84" edge="1">
                    <mxGeometry relative="1" as="geometry"/>
                </mxCell>
                <mxCell id="133" style="edgeStyle=none;html=1;exitX=1;exitY=0.5;exitDx=0;exitDy=0;exitPerimeter=0;entryX=0;entryY=0.5;entryDx=0;entryDy=0;" parent="1" source="80" target="130" edge="1">
                    <mxGeometry relative="1" as="geometry"/>
                </mxCell>
                <mxCell id="80" value="&lt;font style=&quot;font-size: 10px;&quot;&gt;is card a &lt;br&gt;+2?&lt;/font&gt;" style="strokeWidth=2;html=1;shape=mxgraph.flowchart.decision;whiteSpace=wrap;" parent="1" vertex="1">
                    <mxGeometry x="1342.87" y="2143" width="80.5" height="90" as="geometry"/>
                </mxCell>
                <mxCell id="81" value="No" style="text;html=1;strokeColor=none;fillColor=none;align=center;verticalAlign=middle;whiteSpace=wrap;rounded=0;" parent="1" vertex="1">
                    <mxGeometry x="1365.5" y="2056" width="56" height="13" as="geometry"/>
                </mxCell>
                <mxCell id="82" style="edgeStyle=none;html=1;exitX=0.5;exitY=1;exitDx=0;exitDy=0;exitPerimeter=0;strokeColor=#000000;entryX=0.5;entryY=0;entryDx=0;entryDy=0;entryPerimeter=0;" parent="1" source="84" target="86" edge="1">
                    <mxGeometry relative="1" as="geometry">
                        <mxPoint x="1384.37" y="2550" as="targetPoint"/>
                    </mxGeometry>
                </mxCell>
                <mxCell id="139" style="edgeStyle=none;html=1;exitX=0;exitY=0.5;exitDx=0;exitDy=0;exitPerimeter=0;entryX=1;entryY=0.5;entryDx=0;entryDy=0;" parent="1" source="84" target="131" edge="1">
                    <mxGeometry relative="1" as="geometry"/>
                </mxCell>
                <mxCell id="84" value="&lt;font style=&quot;font-size: 10px;&quot;&gt;is card a &lt;br&gt;+4?&lt;/font&gt;" style="strokeWidth=2;html=1;shape=mxgraph.flowchart.decision;whiteSpace=wrap;" parent="1" vertex="1">
                    <mxGeometry x="1343.25" y="2290" width="80.5" height="90" as="geometry"/>
                </mxCell>
                <mxCell id="85" value="No" style="text;html=1;strokeColor=none;fillColor=none;align=center;verticalAlign=middle;whiteSpace=wrap;rounded=0;" parent="1" vertex="1">
                    <mxGeometry x="1340.87" y="2233" width="56" height="13" as="geometry"/>
                </mxCell>
                <mxCell id="161" style="edgeStyle=none;html=1;exitX=0;exitY=0.5;exitDx=0;exitDy=0;exitPerimeter=0;entryX=1;entryY=0.5;entryDx=0;entryDy=0;fontSize=8;" parent="1" source="86" target="160" edge="1">
                    <mxGeometry relative="1" as="geometry"/>
                </mxCell>
                <mxCell id="164" style="edgeStyle=none;html=1;exitX=0.5;exitY=1;exitDx=0;exitDy=0;exitPerimeter=0;entryX=0.5;entryY=0;entryDx=0;entryDy=0;fontSize=8;" parent="1" source="86" target="163" edge="1">
                    <mxGeometry relative="1" as="geometry"/>
                </mxCell>
                <mxCell id="86" value="&lt;font style=&quot;font-size: 10px;&quot;&gt;is card a &lt;br&gt;wild card?&lt;/font&gt;" style="strokeWidth=2;html=1;shape=mxgraph.flowchart.decision;whiteSpace=wrap;" parent="1" vertex="1">
                    <mxGeometry x="1344" y="2730" width="80.5" height="91" as="geometry"/>
                </mxCell>
                <mxCell id="87" value="No" style="text;html=1;strokeColor=none;fillColor=none;align=center;verticalAlign=middle;whiteSpace=wrap;rounded=0;" parent="1" vertex="1">
                    <mxGeometry x="1365.25" y="2380" width="56" height="13" as="geometry"/>
                </mxCell>
                <mxCell id="88" style="edgeStyle=none;html=1;exitX=0.5;exitY=1;exitDx=0;exitDy=0;entryX=0.5;entryY=0;entryDx=0;entryDy=0;strokeColor=#000000;" parent="1" source="89" target="91" edge="1">
                    <mxGeometry relative="1" as="geometry"/>
                </mxCell>
                <mxCell id="89" value="&lt;font style=&quot;font-size: 10px;&quot;&gt;Pick up card from draw pile&lt;/font&gt;" style="rounded=1;whiteSpace=wrap;html=1;absoluteArcSize=1;arcSize=14;strokeWidth=2;" parent="1" vertex="1">
                    <mxGeometry x="1463.78" y="2227" width="80" height="30" as="geometry"/>
                </mxCell>
                <mxCell id="90" style="edgeStyle=none;html=1;exitX=0.5;exitY=1;exitDx=0;exitDy=0;entryX=0.5;entryY=0;entryDx=0;entryDy=0;entryPerimeter=0;strokeColor=#000000;fontSize=10;" parent="1" source="91" target="94" edge="1">
                    <mxGeometry relative="1" as="geometry"/>
                </mxCell>
                <mxCell id="91" value="&lt;font style=&quot;font-size: 10px;&quot;&gt;Place card in front of player&lt;/font&gt;" style="rounded=1;whiteSpace=wrap;html=1;absoluteArcSize=1;arcSize=14;strokeWidth=2;" parent="1" vertex="1">
                    <mxGeometry x="1464" y="2277" width="80" height="30" as="geometry"/>
                </mxCell>
                <mxCell id="92" style="edgeStyle=none;html=1;exitX=1;exitY=0.5;exitDx=0;exitDy=0;exitPerimeter=0;entryX=1;entryY=0.5;entryDx=0;entryDy=0;strokeColor=#000000;fontSize=10;" parent="1" source="94" target="89" edge="1">
                    <mxGeometry relative="1" as="geometry">
                        <Array as="points">
                            <mxPoint x="1590" y="2372"/>
                            <mxPoint x="1590" y="2242"/>
                        </Array>
                    </mxGeometry>
                </mxCell>
                <mxCell id="267" style="edgeStyle=none;html=1;exitX=0.5;exitY=1;exitDx=0;exitDy=0;exitPerimeter=0;entryX=0.5;entryY=0;entryDx=0;entryDy=0;entryPerimeter=0;" edge="1" parent="1" source="94" target="266">
                    <mxGeometry relative="1" as="geometry"/>
                </mxCell>
                <mxCell id="94" value="&lt;span style=&quot;font-size: 10px;&quot;&gt;did player receive 2&lt;br&gt;&lt;/span&gt;&lt;font style=&quot;font-size: 10px;&quot;&gt;cards?&lt;/font&gt;" style="strokeWidth=2;html=1;shape=mxgraph.flowchart.decision;whiteSpace=wrap;" parent="1" vertex="1">
                    <mxGeometry x="1464.63" y="2327" width="78.75" height="90" as="geometry"/>
                </mxCell>
                <mxCell id="95" value="No" style="text;html=1;strokeColor=none;fillColor=none;align=center;verticalAlign=middle;whiteSpace=wrap;rounded=0;" parent="1" vertex="1">
                    <mxGeometry x="1534.5" y="2357" width="56" height="13" as="geometry"/>
                </mxCell>
                <mxCell id="96" style="edgeStyle=none;html=1;exitX=0.5;exitY=1;exitDx=0;exitDy=0;entryX=0.5;entryY=0;entryDx=0;entryDy=0;strokeColor=#000000;" parent="1" source="97" target="99" edge="1">
                    <mxGeometry relative="1" as="geometry"/>
                </mxCell>
                <mxCell id="97" value="&lt;font style=&quot;font-size: 10px;&quot;&gt;Pick up card from draw pile&lt;/font&gt;" style="rounded=1;whiteSpace=wrap;html=1;absoluteArcSize=1;arcSize=14;strokeWidth=2;" parent="1" vertex="1">
                    <mxGeometry x="1218.75" y="2380" width="80" height="30" as="geometry"/>
                </mxCell>
                <mxCell id="98" style="edgeStyle=none;html=1;exitX=0.5;exitY=1;exitDx=0;exitDy=0;entryX=0.5;entryY=0;entryDx=0;entryDy=0;entryPerimeter=0;strokeColor=#000000;fontSize=10;" parent="1" source="99" target="102" edge="1">
                    <mxGeometry relative="1" as="geometry"/>
                </mxCell>
                <mxCell id="99" value="&lt;font style=&quot;font-size: 10px;&quot;&gt;Place card in front of player&lt;/font&gt;" style="rounded=1;whiteSpace=wrap;html=1;absoluteArcSize=1;arcSize=14;strokeWidth=2;" parent="1" vertex="1">
                    <mxGeometry x="1218.97" y="2430" width="80" height="30" as="geometry"/>
                </mxCell>
                <mxCell id="100" style="edgeStyle=none;html=1;exitX=1;exitY=0.5;exitDx=0;exitDy=0;exitPerimeter=0;entryX=1;entryY=0.5;entryDx=0;entryDy=0;strokeColor=#000000;fontSize=10;" parent="1" source="102" target="97" edge="1">
                    <mxGeometry relative="1" as="geometry">
                        <Array as="points">
                            <mxPoint x="1336.75" y="2525"/>
                            <mxPoint x="1336.75" y="2395"/>
                        </Array>
                    </mxGeometry>
                </mxCell>
                <mxCell id="146" style="edgeStyle=none;html=1;exitX=0.5;exitY=1;exitDx=0;exitDy=0;exitPerimeter=0;entryX=0.5;entryY=0;entryDx=0;entryDy=0;" parent="1" source="102" target="147" edge="1">
                    <mxGeometry relative="1" as="geometry">
                        <mxPoint x="1258.1299999999999" y="2590" as="targetPoint"/>
                    </mxGeometry>
                </mxCell>
                <mxCell id="102" value="&lt;span style=&quot;font-size: 10px;&quot;&gt;did player receive 4&lt;br&gt;&lt;/span&gt;&lt;font style=&quot;font-size: 10px;&quot;&gt;cards?&lt;/font&gt;" style="strokeWidth=2;html=1;shape=mxgraph.flowchart.decision;whiteSpace=wrap;" parent="1" vertex="1">
                    <mxGeometry x="1219.6" y="2480" width="78.75" height="90" as="geometry"/>
                </mxCell>
                <mxCell id="103" value="No" style="text;html=1;strokeColor=none;fillColor=none;align=center;verticalAlign=middle;whiteSpace=wrap;rounded=0;" parent="1" vertex="1">
                    <mxGeometry x="1287.25" y="2511" width="56" height="13" as="geometry"/>
                </mxCell>
                <mxCell id="104" value="Yes" style="text;html=1;strokeColor=none;fillColor=none;align=center;verticalAlign=middle;whiteSpace=wrap;rounded=0;" parent="1" vertex="1">
                    <mxGeometry x="1290" y="1997" width="56" height="13" as="geometry"/>
                </mxCell>
                <mxCell id="105" value="Yes" style="text;html=1;strokeColor=none;fillColor=none;align=center;verticalAlign=middle;whiteSpace=wrap;rounded=0;" parent="1" vertex="1">
                    <mxGeometry x="1440" y="2397" width="56" height="13" as="geometry"/>
                </mxCell>
                <mxCell id="108" value="Yes" style="text;html=1;strokeColor=none;fillColor=none;align=center;verticalAlign=middle;whiteSpace=wrap;rounded=0;" parent="1" vertex="1">
                    <mxGeometry x="1210" y="2570" width="56" height="13" as="geometry"/>
                </mxCell>
                <mxCell id="109" value="Yes" style="text;html=1;strokeColor=none;fillColor=none;align=center;verticalAlign=middle;whiteSpace=wrap;rounded=0;" parent="1" vertex="1">
                    <mxGeometry x="1420" y="1979" width="56" height="13" as="geometry"/>
                </mxCell>
                <mxCell id="192" style="edgeStyle=none;html=1;exitX=0.5;exitY=1;exitDx=0;exitDy=0;entryX=0.511;entryY=0.027;entryDx=0;entryDy=0;entryPerimeter=0;fontSize=8;" parent="1" source="110" target="190" edge="1">
                    <mxGeometry relative="1" as="geometry"/>
                </mxCell>
                <mxCell id="110" value="&lt;div style=&quot;&quot;&gt;&lt;span style=&quot;font-size: 10px;&quot;&gt;User presses turn&lt;/span&gt;&lt;/div&gt;&lt;div style=&quot;&quot;&gt;&lt;span style=&quot;font-size: 10px;&quot;&gt;button&lt;/span&gt;&lt;/div&gt;" style="shape=parallelogram;html=1;strokeWidth=2;perimeter=parallelogramPerimeter;whiteSpace=wrap;rounded=1;arcSize=12;size=0.23;align=center;" parent="1" vertex="1">
                    <mxGeometry x="1316.5" y="692" width="130" height="40" as="geometry"/>
                </mxCell>
                <mxCell id="111" style="edgeStyle=none;html=1;exitX=1;exitY=0.5;exitDx=0;exitDy=0;entryX=0;entryY=0.25;entryDx=0;entryDy=0;strokeColor=#000000;fontSize=10;" parent="1" source="112" target="110" edge="1">
                    <mxGeometry relative="1" as="geometry"/>
                </mxCell>
                <mxCell id="112" value="&lt;font style=&quot;font-size: 10px;&quot;&gt;Robot's turn ends&lt;/font&gt;" style="rounded=1;whiteSpace=wrap;html=1;absoluteArcSize=1;arcSize=14;strokeWidth=2;" parent="1" vertex="1">
                    <mxGeometry x="1202.5" y="690" width="80" height="30" as="geometry"/>
                </mxCell>
                <mxCell id="113" value="Yes" style="text;html=1;strokeColor=none;fillColor=none;align=center;verticalAlign=middle;whiteSpace=wrap;rounded=0;" parent="1" vertex="1">
                    <mxGeometry x="1374" y="660" width="56" height="13" as="geometry"/>
                </mxCell>
                <mxCell id="114" value="Yes" style="text;html=1;strokeColor=none;fillColor=none;align=center;verticalAlign=middle;whiteSpace=wrap;rounded=0;" parent="1" vertex="1">
                    <mxGeometry x="1374" y="1870" width="56" height="13" as="geometry"/>
                </mxCell>
                <mxCell id="209" style="edgeStyle=none;html=1;exitX=0.5;exitY=1;exitDx=0;exitDy=0;entryX=0.5;entryY=0;entryDx=0;entryDy=0;entryPerimeter=0;fontSize=8;" parent="1" source="121" edge="1">
                    <mxGeometry relative="1" as="geometry">
                        <mxPoint x="1518.25" y="2030" as="targetPoint"/>
                    </mxGeometry>
                </mxCell>
                <mxCell id="121" value="&lt;div style=&quot;border-color: var(--border-color);&quot;&gt;&lt;span style=&quot;font-size: 10px;&quot;&gt;Place card in playing pile&lt;/span&gt;&lt;/div&gt;" style="rounded=1;whiteSpace=wrap;html=1;absoluteArcSize=1;arcSize=14;strokeWidth=2;" parent="1" vertex="1">
                    <mxGeometry x="1478" y="1980" width="80" height="30" as="geometry"/>
                </mxCell>
                <mxCell id="127" style="edgeStyle=none;html=1;exitX=0.5;exitY=1;exitDx=0;exitDy=0;entryX=0.5;entryY=0;entryDx=0;entryDy=0;entryPerimeter=0;" parent="1" source="122" target="77" edge="1">
                    <mxGeometry relative="1" as="geometry"/>
                </mxCell>
                <mxCell id="122" value="&lt;span style=&quot;font-size: 10px;&quot;&gt;Choose most optimum card&lt;/span&gt;" style="rounded=1;whiteSpace=wrap;html=1;absoluteArcSize=1;arcSize=14;strokeWidth=2;" parent="1" vertex="1">
                    <mxGeometry x="1343.25" y="1893" width="80" height="30" as="geometry"/>
                </mxCell>
                <mxCell id="132" style="edgeStyle=none;html=1;exitX=0.5;exitY=1;exitDx=0;exitDy=0;entryX=0.5;entryY=0;entryDx=0;entryDy=0;" parent="1" source="130" target="89" edge="1">
                    <mxGeometry relative="1" as="geometry"/>
                </mxCell>
                <mxCell id="130" value="&lt;div style=&quot;border-color: var(--border-color);&quot;&gt;&lt;span style=&quot;font-size: 10px;&quot;&gt;Place card in playing pile&lt;/span&gt;&lt;/div&gt;" style="rounded=1;whiteSpace=wrap;html=1;absoluteArcSize=1;arcSize=14;strokeWidth=2;" parent="1" vertex="1">
                    <mxGeometry x="1464.01" y="2174" width="80" height="30" as="geometry"/>
                </mxCell>
                <mxCell id="140" style="edgeStyle=none;html=1;exitX=0.5;exitY=1;exitDx=0;exitDy=0;entryX=0.5;entryY=0;entryDx=0;entryDy=0;" parent="1" source="131" target="97" edge="1">
                    <mxGeometry relative="1" as="geometry"/>
                </mxCell>
                <mxCell id="131" value="&lt;div style=&quot;border-color: var(--border-color);&quot;&gt;&lt;span style=&quot;font-size: 10px;&quot;&gt;Place card in playing pile&lt;/span&gt;&lt;/div&gt;" style="rounded=1;whiteSpace=wrap;html=1;absoluteArcSize=1;arcSize=14;strokeWidth=2;" parent="1" vertex="1">
                    <mxGeometry x="1219.5" y="2320" width="80" height="30" as="geometry"/>
                </mxCell>
                <mxCell id="151" style="edgeStyle=none;html=1;exitX=0.5;exitY=1;exitDx=0;exitDy=0;entryX=0.5;entryY=0;entryDx=0;entryDy=0;fontSize=8;" parent="1" source="147" target="150" edge="1">
                    <mxGeometry relative="1" as="geometry"/>
                </mxCell>
                <mxCell id="147" value="&lt;font style=&quot;font-size: 10px;&quot;&gt;Select most optimum colour&lt;/font&gt;" style="rounded=1;whiteSpace=wrap;html=1;absoluteArcSize=1;arcSize=14;strokeWidth=2;" parent="1" vertex="1">
                    <mxGeometry x="1219.6" y="2590" width="80" height="30" as="geometry"/>
                </mxCell>
                <mxCell id="269" style="edgeStyle=none;html=1;exitX=0.5;exitY=1;exitDx=0;exitDy=0;entryX=0.5;entryY=0;entryDx=0;entryDy=0;entryPerimeter=0;" edge="1" parent="1" source="150" target="268">
                    <mxGeometry relative="1" as="geometry"/>
                </mxCell>
                <mxCell id="150" value="&lt;span style=&quot;font-size: 10px;&quot;&gt;Announce selected&lt;br&gt;card colour&lt;br&gt;&lt;/span&gt;" style="shape=parallelogram;html=1;strokeWidth=2;perimeter=parallelogramPerimeter;whiteSpace=wrap;rounded=1;arcSize=12;size=0.23;align=center;" parent="1" vertex="1">
                    <mxGeometry x="1194.5" y="2640" width="130" height="40" as="geometry"/>
                </mxCell>
                <mxCell id="152" style="edgeStyle=none;html=1;exitX=0.5;exitY=1;exitDx=0;exitDy=0;entryX=0.5;entryY=0;entryDx=0;entryDy=0;fontSize=8;" parent="1" source="153" target="154" edge="1">
                    <mxGeometry relative="1" as="geometry">
                        <mxPoint x="1260.13" y="2871" as="targetPoint"/>
                    </mxGeometry>
                </mxCell>
                <mxCell id="153" value="&lt;font style=&quot;font-size: 10px;&quot;&gt;Select most optimum colour&lt;/font&gt;" style="rounded=1;whiteSpace=wrap;html=1;absoluteArcSize=1;arcSize=14;strokeWidth=2;" parent="1" vertex="1">
                    <mxGeometry x="1220.23" y="2821" width="80" height="30" as="geometry"/>
                </mxCell>
                <mxCell id="265" style="edgeStyle=none;html=1;exitX=0.5;exitY=1;exitDx=0;exitDy=0;entryX=0.5;entryY=0;entryDx=0;entryDy=0;entryPerimeter=0;" edge="1" parent="1" source="154" target="246">
                    <mxGeometry relative="1" as="geometry">
                        <Array as="points">
                            <mxPoint x="1260" y="2950"/>
                            <mxPoint x="1320" y="2950"/>
                            <mxPoint x="1384" y="2950"/>
                        </Array>
                    </mxGeometry>
                </mxCell>
                <mxCell id="154" value="&lt;span style=&quot;font-size: 10px;&quot;&gt;Announce selected&lt;br&gt;card colour&lt;br&gt;&lt;/span&gt;" style="shape=parallelogram;html=1;strokeWidth=2;perimeter=parallelogramPerimeter;whiteSpace=wrap;rounded=1;arcSize=12;size=0.23;align=center;" parent="1" vertex="1">
                    <mxGeometry x="1195.25" y="2880" width="130" height="40" as="geometry"/>
                </mxCell>
                <mxCell id="162" style="edgeStyle=none;html=1;exitX=0.5;exitY=1;exitDx=0;exitDy=0;entryX=0.5;entryY=0;entryDx=0;entryDy=0;fontSize=8;" parent="1" source="160" target="153" edge="1">
                    <mxGeometry relative="1" as="geometry"/>
                </mxCell>
                <mxCell id="160" value="&lt;div style=&quot;border-color: var(--border-color);&quot;&gt;&lt;span style=&quot;font-size: 10px;&quot;&gt;Place card in playing pile&lt;/span&gt;&lt;/div&gt;" style="rounded=1;whiteSpace=wrap;html=1;absoluteArcSize=1;arcSize=14;strokeWidth=2;" parent="1" vertex="1">
                    <mxGeometry x="1220.25" y="2760.5" width="80" height="30" as="geometry"/>
                </mxCell>
                <mxCell id="251" style="edgeStyle=none;html=1;exitX=0.5;exitY=1;exitDx=0;exitDy=0;entryX=0.5;entryY=0;entryDx=0;entryDy=0;entryPerimeter=0;" edge="1" parent="1" source="163" target="246">
                    <mxGeometry relative="1" as="geometry"/>
                </mxCell>
                <mxCell id="163" value="&lt;div style=&quot;border-color: var(--border-color);&quot;&gt;&lt;span style=&quot;font-size: 10px;&quot;&gt;Place card in playing pile&lt;/span&gt;&lt;/div&gt;" style="rounded=1;whiteSpace=wrap;html=1;absoluteArcSize=1;arcSize=14;strokeWidth=2;" parent="1" vertex="1">
                    <mxGeometry x="1343.75" y="2880" width="80" height="30" as="geometry"/>
                </mxCell>
                <mxCell id="165" value="No" style="text;html=1;strokeColor=none;fillColor=none;align=center;verticalAlign=middle;whiteSpace=wrap;rounded=0;" parent="1" vertex="1">
                    <mxGeometry x="1368.5" y="2821" width="56" height="13" as="geometry"/>
                </mxCell>
                <mxCell id="166" value="Yes" style="text;html=1;strokeColor=none;fillColor=none;align=center;verticalAlign=middle;whiteSpace=wrap;rounded=0;" parent="1" vertex="1">
                    <mxGeometry x="1302" y="2760" width="56" height="13" as="geometry"/>
                </mxCell>
                <mxCell id="175" style="edgeStyle=none;html=1;exitX=0.5;exitY=1;exitDx=0;exitDy=0;exitPerimeter=0;entryX=0.5;entryY=0;entryDx=0;entryDy=0;fontSize=8;" parent="1" source="173" target="15" edge="1">
                    <mxGeometry relative="1" as="geometry"/>
                </mxCell>
                <mxCell id="178" style="edgeStyle=none;html=1;exitX=1;exitY=0.5;exitDx=0;exitDy=0;exitPerimeter=0;fontSize=8;entryX=0;entryY=0.5;entryDx=0;entryDy=0;" parent="1" source="173" target="181" edge="1">
                    <mxGeometry relative="1" as="geometry">
                        <mxPoint x="1480" y="925.3333333333335" as="targetPoint"/>
                    </mxGeometry>
                </mxCell>
                <mxCell id="173" value="&lt;font style=&quot;font-size: 10px;&quot;&gt;did user say&lt;br&gt;&quot;draw&quot;?&lt;br&gt;&lt;/font&gt;" style="strokeWidth=2;html=1;shape=mxgraph.flowchart.decision;whiteSpace=wrap;" parent="1" vertex="1">
                    <mxGeometry x="1340.5" y="880" width="80.5" height="90" as="geometry"/>
                </mxCell>
                <mxCell id="176" value="No" style="text;html=1;strokeColor=none;fillColor=none;align=center;verticalAlign=middle;whiteSpace=wrap;rounded=0;" parent="1" vertex="1">
                    <mxGeometry x="1365.75" y="990" width="56" height="13" as="geometry"/>
                </mxCell>
                <mxCell id="177" value="Yes" style="text;html=1;strokeColor=none;fillColor=none;align=center;verticalAlign=middle;whiteSpace=wrap;rounded=0;" parent="1" vertex="1">
                    <mxGeometry x="1420" y="910" width="56" height="13" as="geometry"/>
                </mxCell>
                <mxCell id="180" style="edgeStyle=none;html=1;exitX=0.5;exitY=1;exitDx=0;exitDy=0;entryX=0.5;entryY=0;entryDx=0;entryDy=0;strokeColor=#000000;" parent="1" source="181" target="182" edge="1">
                    <mxGeometry relative="1" as="geometry"/>
                </mxCell>
                <mxCell id="181" value="&lt;font style=&quot;font-size: 10px;&quot;&gt;Pick up card from draw pile&lt;/font&gt;" style="rounded=1;whiteSpace=wrap;html=1;absoluteArcSize=1;arcSize=14;strokeWidth=2;" parent="1" vertex="1">
                    <mxGeometry x="1480" y="910" width="80" height="30" as="geometry"/>
                </mxCell>
                <mxCell id="258" style="edgeStyle=none;html=1;exitX=0.5;exitY=1;exitDx=0;exitDy=0;" edge="1" parent="1" source="182" target="257">
                    <mxGeometry relative="1" as="geometry"/>
                </mxCell>
                <mxCell id="182" value="&lt;font style=&quot;font-size: 10px;&quot;&gt;Place card in front of player&lt;/font&gt;" style="rounded=1;whiteSpace=wrap;html=1;absoluteArcSize=1;arcSize=14;strokeWidth=2;" parent="1" vertex="1">
                    <mxGeometry x="1479.5" y="960" width="80" height="30" as="geometry"/>
                </mxCell>
                <mxCell id="186" value="A" style="strokeWidth=2;html=1;shape=mxgraph.flowchart.start_2;whiteSpace=wrap;fontSize=8;" parent="1" vertex="1">
                    <mxGeometry x="1509.25" y="1130" width="22" height="24.5" as="geometry"/>
                </mxCell>
                <mxCell id="256" style="edgeStyle=none;html=1;exitX=0;exitY=0.5;exitDx=0;exitDy=0;exitPerimeter=0;entryX=1;entryY=0.5;entryDx=0;entryDy=0;entryPerimeter=0;" edge="1" parent="1" source="188" target="62">
                    <mxGeometry relative="1" as="geometry"/>
                </mxCell>
                <mxCell id="188" value="A" style="strokeWidth=2;html=1;shape=mxgraph.flowchart.start_2;whiteSpace=wrap;fontSize=8;" parent="1" vertex="1">
                    <mxGeometry x="1507" y="1812.75" width="22" height="24.5" as="geometry"/>
                </mxCell>
                <mxCell id="191" style="edgeStyle=none;html=1;exitX=0.5;exitY=1;exitDx=0;exitDy=0;exitPerimeter=0;fontSize=8;" parent="1" source="190" edge="1">
                    <mxGeometry relative="1" as="geometry">
                        <mxPoint x="1381" y="880" as="targetPoint"/>
                    </mxGeometry>
                </mxCell>
                <mxCell id="190" value="&lt;font style=&quot;font-size: 10px;&quot;&gt;is draw pile&lt;br&gt;empty?&lt;br&gt;&lt;/font&gt;" style="strokeWidth=2;html=1;shape=mxgraph.flowchart.decision;whiteSpace=wrap;" parent="1" vertex="1">
                    <mxGeometry x="1341" y="760" width="80.5" height="90" as="geometry"/>
                </mxCell>
                <mxCell id="193" value="Yes" style="text;html=1;strokeColor=none;fillColor=none;align=center;verticalAlign=middle;whiteSpace=wrap;rounded=0;" parent="1" vertex="1">
                    <mxGeometry x="1420" y="790" width="56" height="13" as="geometry"/>
                </mxCell>
                <mxCell id="195" style="edgeStyle=none;html=1;exitX=1;exitY=0.5;exitDx=0;exitDy=0;exitPerimeter=0;fontSize=8;startArrow=none;entryX=0;entryY=0.5;entryDx=0;entryDy=0;" parent="1" source="190" target="199" edge="1">
                    <mxGeometry relative="1" as="geometry">
                        <mxPoint x="1391.25" y="860" as="sourcePoint"/>
                        <mxPoint x="1478" y="805" as="targetPoint"/>
                    </mxGeometry>
                </mxCell>
                <mxCell id="194" value="No" style="text;html=1;strokeColor=none;fillColor=none;align=center;verticalAlign=middle;whiteSpace=wrap;rounded=0;" parent="1" vertex="1">
                    <mxGeometry x="1374" y="860" width="56" height="13" as="geometry"/>
                </mxCell>
                <mxCell id="200" style="edgeStyle=none;html=1;exitX=1;exitY=0.5;exitDx=0;exitDy=0;entryX=1;entryY=0.5;entryDx=0;entryDy=0;fontSize=8;" parent="1" source="199" target="110" edge="1">
                    <mxGeometry relative="1" as="geometry">
                        <Array as="points">
                            <mxPoint x="1610" y="805"/>
                            <mxPoint x="1610" y="712"/>
                        </Array>
                    </mxGeometry>
                </mxCell>
                <mxCell id="199" value="&lt;div style=&quot;&quot;&gt;&lt;span style=&quot;font-size: 10px;&quot;&gt;Ask user to reshuffle&lt;/span&gt;&lt;/div&gt;" style="shape=parallelogram;html=1;strokeWidth=2;perimeter=parallelogramPerimeter;whiteSpace=wrap;rounded=1;arcSize=12;size=0.23;align=center;" parent="1" vertex="1">
                    <mxGeometry x="1464.63" y="785" width="130" height="40" as="geometry"/>
                </mxCell>
                <mxCell id="204" style="edgeStyle=none;html=1;exitX=0;exitY=0.5;exitDx=0;exitDy=0;entryX=0.5;entryY=0;entryDx=0;entryDy=0;entryPerimeter=0;fontSize=8;" parent="1" source="206" target="62" edge="1">
                    <mxGeometry relative="1" as="geometry">
                        <mxPoint x="1453.9600000000003" y="1780" as="sourcePoint"/>
                    </mxGeometry>
                </mxCell>
                <mxCell id="206" value="&lt;font style=&quot;font-size: 10px;&quot;&gt;Record colour of&lt;br&gt;wild card&lt;br&gt;&lt;/font&gt;" style="rounded=1;whiteSpace=wrap;html=1;absoluteArcSize=1;arcSize=14;strokeWidth=2;" parent="1" vertex="1">
                    <mxGeometry x="1465" y="1765" width="80" height="30" as="geometry"/>
                </mxCell>
                <mxCell id="221" style="edgeStyle=none;html=1;exitX=0.5;exitY=1;exitDx=0;exitDy=0;exitPerimeter=0;entryX=0.5;entryY=0;entryDx=0;entryDy=0;fontSize=8;" parent="1" source="210" target="223" edge="1">
                    <mxGeometry relative="1" as="geometry">
                        <mxPoint x="1274.9999999999998" y="3069.9999999999995" as="targetPoint"/>
                    </mxGeometry>
                </mxCell>
                <mxCell id="224" style="edgeStyle=none;html=1;exitX=0;exitY=0.5;exitDx=0;exitDy=0;exitPerimeter=0;entryX=0;entryY=0.5;entryDx=0;entryDy=0;fontSize=8;" parent="1" source="210" target="112" edge="1">
                    <mxGeometry relative="1" as="geometry">
                        <Array as="points">
                            <mxPoint x="1160" y="3010"/>
                            <mxPoint x="1160" y="2950"/>
                            <mxPoint x="1160" y="1390"/>
                            <mxPoint x="1160" y="705"/>
                        </Array>
                    </mxGeometry>
                </mxCell>
                <mxCell id="210" value="&lt;span style=&quot;font-size: 10px;&quot;&gt;does deck only&lt;br&gt;have 1 card?&lt;br&gt;&lt;/span&gt;" style="strokeWidth=2;html=1;shape=mxgraph.flowchart.decision;whiteSpace=wrap;" parent="1" vertex="1">
                    <mxGeometry x="1234.5" y="2964" width="80.5" height="90" as="geometry"/>
                </mxCell>
                <mxCell id="214" value="Yes" style="text;html=1;strokeColor=none;fillColor=none;align=center;verticalAlign=middle;whiteSpace=wrap;rounded=0;" parent="1" vertex="1">
                    <mxGeometry x="1228.5" y="3054" width="56" height="13" as="geometry"/>
                </mxCell>
                <mxCell id="229" style="edgeStyle=none;html=1;exitX=0.5;exitY=1;exitDx=0;exitDy=0;exitPerimeter=0;entryX=0.5;entryY=0;entryDx=0;entryDy=0;" edge="1" parent="1" source="216" target="231">
                    <mxGeometry relative="1" as="geometry">
                        <mxPoint x="1275.7327586206898" y="3279.9999999999995" as="targetPoint"/>
                        <mxPoint x="1275.5" y="3239.9999999999995" as="sourcePoint"/>
                    </mxGeometry>
                </mxCell>
                <mxCell id="241" style="edgeStyle=none;html=1;exitX=0;exitY=0.5;exitDx=0;exitDy=0;exitPerimeter=0;entryX=0;entryY=0.5;entryDx=0;entryDy=0;" edge="1" parent="1" source="216" target="112">
                    <mxGeometry relative="1" as="geometry">
                        <Array as="points">
                            <mxPoint x="1160" y="3195"/>
                            <mxPoint x="1160" y="3135"/>
                            <mxPoint x="1160" y="705"/>
                        </Array>
                    </mxGeometry>
                </mxCell>
                <mxCell id="216" value="&lt;span style=&quot;font-size: 10px;&quot;&gt;did player say&lt;br&gt;UNO faster?&lt;br&gt;&lt;/span&gt;" style="strokeWidth=2;html=1;shape=mxgraph.flowchart.decision;whiteSpace=wrap;" parent="1" vertex="1">
                    <mxGeometry x="1235" y="3150" width="80.5" height="90" as="geometry"/>
                </mxCell>
                <mxCell id="222" style="edgeStyle=none;html=1;exitX=0.5;exitY=1;exitDx=0;exitDy=0;entryX=0.5;entryY=0;entryDx=0;entryDy=0;entryPerimeter=0;fontSize=8;" parent="1" source="223" target="216" edge="1">
                    <mxGeometry relative="1" as="geometry">
                        <mxPoint x="1274.9999999999998" y="3099.9999999999995" as="sourcePoint"/>
                    </mxGeometry>
                </mxCell>
                <mxCell id="223" value="&lt;span style=&quot;font-size: 10px;&quot;&gt;Robot says UNO&lt;br&gt;&lt;/span&gt;" style="shape=parallelogram;html=1;strokeWidth=2;perimeter=parallelogramPerimeter;whiteSpace=wrap;rounded=1;arcSize=12;size=0.23;align=center;" parent="1" vertex="1">
                    <mxGeometry x="1210.25" y="3080" width="130" height="40" as="geometry"/>
                </mxCell>
                <mxCell id="230" style="edgeStyle=none;html=1;exitX=0.5;exitY=1;exitDx=0;exitDy=0;" edge="1" parent="1" source="231">
                    <mxGeometry relative="1" as="geometry">
                        <mxPoint x="1275.1111111111113" y="3320" as="targetPoint"/>
                    </mxGeometry>
                </mxCell>
                <mxCell id="231" value="&lt;font style=&quot;font-size: 10px;&quot;&gt;Pick up card from draw pile&lt;/font&gt;" style="rounded=1;whiteSpace=wrap;html=1;absoluteArcSize=1;arcSize=14;strokeWidth=2;" vertex="1" parent="1">
                    <mxGeometry x="1235" y="3271" width="80" height="30" as="geometry"/>
                </mxCell>
                <mxCell id="232" style="edgeStyle=none;html=1;exitX=0.5;exitY=1;exitDx=0;exitDy=0;" edge="1" parent="1" source="233">
                    <mxGeometry relative="1" as="geometry">
                        <mxPoint x="1275.1111111111113" y="3370" as="targetPoint"/>
                    </mxGeometry>
                </mxCell>
                <mxCell id="233" value="&lt;font style=&quot;font-size: 10px;&quot;&gt;Read card from camera&lt;/font&gt;" style="rounded=1;whiteSpace=wrap;html=1;absoluteArcSize=1;arcSize=14;strokeWidth=2;" vertex="1" parent="1">
                    <mxGeometry x="1235" y="3320" width="80" height="30" as="geometry"/>
                </mxCell>
                <mxCell id="234" style="edgeStyle=none;html=1;exitX=0.5;exitY=1;exitDx=0;exitDy=0;entryX=0.5;entryY=0;entryDx=0;entryDy=0;entryPerimeter=0;strokeColor=#000000;" edge="1" parent="1" source="235" target="237">
                    <mxGeometry relative="1" as="geometry"/>
                </mxCell>
                <mxCell id="235" value="&lt;font style=&quot;font-size: 10px;&quot;&gt;Place card in deck&lt;/font&gt;" style="rounded=1;whiteSpace=wrap;html=1;absoluteArcSize=1;arcSize=14;strokeWidth=2;" vertex="1" parent="1">
                    <mxGeometry x="1235" y="3370" width="80" height="27" as="geometry"/>
                </mxCell>
                <mxCell id="236" style="edgeStyle=none;html=1;exitX=0;exitY=0.5;exitDx=0;exitDy=0;exitPerimeter=0;entryX=0;entryY=0.5;entryDx=0;entryDy=0;strokeColor=#000000;" edge="1" parent="1" source="237" target="231">
                    <mxGeometry relative="1" as="geometry">
                        <Array as="points">
                            <mxPoint x="1195" y="3462"/>
                            <mxPoint x="1195" y="3287"/>
                        </Array>
                    </mxGeometry>
                </mxCell>
                <mxCell id="243" style="edgeStyle=none;html=1;exitX=0.5;exitY=1;exitDx=0;exitDy=0;exitPerimeter=0;entryX=0;entryY=0.5;entryDx=0;entryDy=0;" edge="1" parent="1" source="237" target="112">
                    <mxGeometry relative="1" as="geometry">
                        <mxPoint x="1180" y="750" as="targetPoint"/>
                        <Array as="points">
                            <mxPoint x="1160" y="3507"/>
                            <mxPoint x="1160" y="3447"/>
                            <mxPoint x="1160" y="705"/>
                        </Array>
                    </mxGeometry>
                </mxCell>
                <mxCell id="237" value="&lt;span style=&quot;font-size: 10px;&quot;&gt;Did robot&lt;br&gt;pick 2 cards?&lt;/span&gt;" style="strokeWidth=2;html=1;shape=mxgraph.flowchart.decision;whiteSpace=wrap;" vertex="1" parent="1">
                    <mxGeometry x="1234.5" y="3417" width="80.5" height="90" as="geometry"/>
                </mxCell>
                <mxCell id="239" value="Yes" style="text;html=1;strokeColor=none;fillColor=none;align=center;verticalAlign=middle;whiteSpace=wrap;rounded=0;" vertex="1" parent="1">
                    <mxGeometry x="1259.75" y="3240" width="56" height="13" as="geometry"/>
                </mxCell>
                <mxCell id="240" value="No" style="text;html=1;strokeColor=none;fillColor=none;align=center;verticalAlign=middle;whiteSpace=wrap;rounded=0;" vertex="1" parent="1">
                    <mxGeometry x="1195.75" y="3440" width="56" height="13" as="geometry"/>
                </mxCell>
                <mxCell id="242" value="No" style="text;html=1;strokeColor=none;fillColor=none;align=center;verticalAlign=middle;whiteSpace=wrap;rounded=0;" vertex="1" parent="1">
                    <mxGeometry x="1180" y="3180" width="56" height="13" as="geometry"/>
                </mxCell>
                <mxCell id="244" value="Yes" style="text;html=1;strokeColor=none;fillColor=none;align=center;verticalAlign=middle;whiteSpace=wrap;rounded=0;" vertex="1" parent="1">
                    <mxGeometry x="1206" y="3507" width="56" height="13" as="geometry"/>
                </mxCell>
                <mxCell id="248" style="edgeStyle=none;html=1;exitX=0;exitY=0.5;exitDx=0;exitDy=0;exitPerimeter=0;entryX=1;entryY=0.5;entryDx=0;entryDy=0;entryPerimeter=0;" edge="1" parent="1" source="246" target="210">
                    <mxGeometry relative="1" as="geometry"/>
                </mxCell>
                <mxCell id="254" style="edgeStyle=none;html=1;exitX=0.5;exitY=1;exitDx=0;exitDy=0;exitPerimeter=0;entryX=0.5;entryY=0;entryDx=0;entryDy=0;entryPerimeter=0;" edge="1" parent="1" source="246" target="253">
                    <mxGeometry relative="1" as="geometry"/>
                </mxCell>
                <mxCell id="246" value="&lt;span style=&quot;font-size: 10px;&quot;&gt;Was this the &lt;br&gt;last card?&lt;br&gt;&lt;/span&gt;" style="strokeWidth=2;html=1;shape=mxgraph.flowchart.decision;whiteSpace=wrap;" vertex="1" parent="1">
                    <mxGeometry x="1344" y="2964" width="80.5" height="90" as="geometry"/>
                </mxCell>
                <mxCell id="249" value="Yes" style="text;html=1;strokeColor=none;fillColor=none;align=center;verticalAlign=middle;whiteSpace=wrap;rounded=0;" vertex="1" parent="1">
                    <mxGeometry x="1374" y="3067" width="56" height="13" as="geometry"/>
                </mxCell>
                <mxCell id="250" value="No" style="text;html=1;strokeColor=none;fillColor=none;align=center;verticalAlign=middle;whiteSpace=wrap;rounded=0;" vertex="1" parent="1">
                    <mxGeometry x="1302" y="2990" width="56" height="13" as="geometry"/>
                </mxCell>
                <mxCell id="253" value="End" style="strokeWidth=2;html=1;shape=mxgraph.flowchart.terminator;whiteSpace=wrap;" vertex="1" parent="1">
                    <mxGeometry x="1350.75" y="3100" width="67" height="40" as="geometry"/>
                </mxCell>
                <mxCell id="259" style="edgeStyle=none;html=1;exitX=0;exitY=0.5;exitDx=0;exitDy=0;exitPerimeter=0;entryX=1;entryY=0.5;entryDx=0;entryDy=0;" edge="1" parent="1" source="257" target="15">
                    <mxGeometry relative="1" as="geometry">
                        <Array as="points">
                            <mxPoint x="1450" y="1050"/>
                            <mxPoint x="1450" y="1035"/>
                        </Array>
                    </mxGeometry>
                </mxCell>
                <mxCell id="260" style="edgeStyle=none;html=1;exitX=0.5;exitY=1;exitDx=0;exitDy=0;exitPerimeter=0;entryX=0.5;entryY=0;entryDx=0;entryDy=0;entryPerimeter=0;" edge="1" parent="1" source="257" target="186">
                    <mxGeometry relative="1" as="geometry"/>
                </mxCell>
                <mxCell id="257" value="&lt;font style=&quot;font-size: 10px;&quot;&gt;does user press&lt;br&gt;the button?&lt;br&gt;&lt;/font&gt;" style="strokeWidth=2;html=1;shape=mxgraph.flowchart.decision;whiteSpace=wrap;" vertex="1" parent="1">
                    <mxGeometry x="1480" y="1007.25" width="80.5" height="90" as="geometry"/>
                </mxCell>
                <mxCell id="261" value="Yes" style="text;html=1;strokeColor=none;fillColor=none;align=center;verticalAlign=middle;whiteSpace=wrap;rounded=0;" vertex="1" parent="1">
                    <mxGeometry x="1430" y="1050" width="56" height="13" as="geometry"/>
                </mxCell>
                <mxCell id="262" value="No" style="text;html=1;strokeColor=none;fillColor=none;align=center;verticalAlign=middle;whiteSpace=wrap;rounded=0;" vertex="1" parent="1">
                    <mxGeometry x="1520" y="1100" width="56" height="13" as="geometry"/>
                </mxCell>
                <mxCell id="266" value="A" style="strokeWidth=2;html=1;shape=mxgraph.flowchart.start_2;whiteSpace=wrap;fontSize=8;" vertex="1" parent="1">
                    <mxGeometry x="1492.78" y="2440" width="22" height="24.5" as="geometry"/>
                </mxCell>
                <mxCell id="268" value="A" style="strokeWidth=2;html=1;shape=mxgraph.flowchart.start_2;whiteSpace=wrap;fontSize=8;" vertex="1" parent="1">
                    <mxGeometry x="1248.5" y="2705.5" width="22" height="24.5" as="geometry"/>
                </mxCell>
                <mxCell id="300" style="edgeStyle=none;html=1;exitX=0.5;exitY=1;exitDx=0;exitDy=0;exitPerimeter=0;entryX=0.5;entryY=0;entryDx=0;entryDy=0;" edge="1" parent="1" source="298" target="305">
                    <mxGeometry relative="1" as="geometry">
                        <mxPoint x="-640" y="410" as="targetPoint"/>
                    </mxGeometry>
                </mxCell>
                <mxCell id="298" value="&lt;font style=&quot;font-size: 10px;&quot;&gt;Start&lt;/font&gt;" style="strokeWidth=2;html=1;shape=mxgraph.flowchart.start_1;whiteSpace=wrap;" vertex="1" parent="1">
                    <mxGeometry x="-680" y="367.5" width="80" height="22.5" as="geometry"/>
                </mxCell>
                <mxCell id="302" style="edgeStyle=none;html=1;exitX=0.5;exitY=1;exitDx=0;exitDy=0;" edge="1" parent="1" source="299" target="301">
                    <mxGeometry relative="1" as="geometry"/>
                </mxCell>
                <mxCell id="299" value="&lt;font style=&quot;font-size: 10px;&quot;&gt;Pick up card from draw pile&lt;/font&gt;" style="rounded=1;whiteSpace=wrap;html=1;absoluteArcSize=1;arcSize=14;strokeWidth=2;" vertex="1" parent="1">
                    <mxGeometry x="-1465" y="452" width="80" height="30" as="geometry"/>
                </mxCell>
                <mxCell id="304" style="edgeStyle=none;html=1;exitX=0.5;exitY=1;exitDx=0;exitDy=0;entryX=0.5;entryY=0;entryDx=0;entryDy=0;" edge="1" parent="1" source="301" target="303">
                    <mxGeometry relative="1" as="geometry"/>
                </mxCell>
                <mxCell id="301" value="&lt;font style=&quot;font-size: 10px;&quot;&gt;Read card from camera&lt;/font&gt;" style="rounded=1;whiteSpace=wrap;html=1;absoluteArcSize=1;arcSize=14;strokeWidth=2;" vertex="1" parent="1">
                    <mxGeometry x="-1465" y="502" width="80" height="30" as="geometry"/>
                </mxCell>
                <mxCell id="313" style="edgeStyle=none;html=1;exitX=0.5;exitY=1;exitDx=0;exitDy=0;entryX=0.5;entryY=0;entryDx=0;entryDy=0;entryPerimeter=0;" edge="1" parent="1" source="303" target="312">
                    <mxGeometry relative="1" as="geometry">
                        <mxPoint x="-1425" y="600.0000000000001" as="targetPoint"/>
                    </mxGeometry>
                </mxCell>
                <mxCell id="303" value="&lt;font style=&quot;font-size: 10px;&quot;&gt;Place card in deck&lt;/font&gt;" style="rounded=1;whiteSpace=wrap;html=1;absoluteArcSize=1;arcSize=14;strokeWidth=2;" vertex="1" parent="1">
                    <mxGeometry x="-1465" y="550" width="80" height="30" as="geometry"/>
                </mxCell>
                <mxCell id="319" style="edgeStyle=none;html=1;exitX=0.5;exitY=1;exitDx=0;exitDy=0;entryX=0.5;entryY=0;entryDx=0;entryDy=0;entryPerimeter=0;fontSize=8;" edge="1" parent="1" source="305" target="317">
                    <mxGeometry relative="1" as="geometry"/>
                </mxCell>
                <mxCell id="305" value="" style="verticalLabelPosition=bottom;verticalAlign=top;html=1;shape=process;whiteSpace=wrap;rounded=1;size=0.14;arcSize=6;" vertex="1" parent="1">
                    <mxGeometry x="-680" y="423" width="80" height="35" as="geometry"/>
                </mxCell>
                <mxCell id="415" style="edgeStyle=none;html=1;exitX=0.5;exitY=1;exitDx=0;exitDy=0;exitPerimeter=0;entryX=0.499;entryY=0.021;entryDx=0;entryDy=0;entryPerimeter=0;fontSize=8;" edge="1" parent="1" source="310" target="414">
                    <mxGeometry relative="1" as="geometry">
                        <mxPoint x="-1425" y="392.5" as="sourcePoint"/>
                    </mxGeometry>
                </mxCell>
                <mxCell id="310" value="&lt;font style=&quot;font-size: 10px;&quot;&gt;Start&lt;/font&gt;" style="strokeWidth=2;html=1;shape=mxgraph.flowchart.start_1;whiteSpace=wrap;" vertex="1" parent="1">
                    <mxGeometry x="-1465" y="360" width="80" height="22.5" as="geometry"/>
                </mxCell>
                <mxCell id="312" value="&lt;font style=&quot;font-size: 10px;&quot;&gt;End&lt;/font&gt;" style="strokeWidth=2;html=1;shape=mxgraph.flowchart.start_1;whiteSpace=wrap;" vertex="1" parent="1">
                    <mxGeometry x="-1465" y="595" width="80" height="22.5" as="geometry"/>
                </mxCell>
                <mxCell id="314" value="Pick Up Card" style="text;html=1;align=center;verticalAlign=middle;resizable=0;points=[];autosize=1;strokeColor=none;fillColor=none;" vertex="1" parent="1">
                    <mxGeometry x="-1470" y="320" width="90" height="30" as="geometry"/>
                </mxCell>
                <mxCell id="315" value="&lt;font style=&quot;font-size: 8px;&quot;&gt;Pick Up Card&lt;/font&gt;" style="text;html=1;align=center;verticalAlign=middle;resizable=0;points=[];autosize=1;strokeColor=none;fillColor=none;" vertex="1" parent="1">
                    <mxGeometry x="-675" y="425" width="70" height="30" as="geometry"/>
                </mxCell>
                <mxCell id="320" style="edgeStyle=none;html=1;exitX=1;exitY=0.5;exitDx=0;exitDy=0;exitPerimeter=0;entryX=1;entryY=0.5;entryDx=0;entryDy=0;fontSize=8;" edge="1" parent="1" source="317" target="305">
                    <mxGeometry relative="1" as="geometry">
                        <Array as="points">
                            <mxPoint x="-570" y="530"/>
                            <mxPoint x="-570" y="520"/>
                            <mxPoint x="-570" y="440"/>
                        </Array>
                    </mxGeometry>
                </mxCell>
                <mxCell id="325" style="edgeStyle=none;html=1;exitX=0.5;exitY=1;exitDx=0;exitDy=0;exitPerimeter=0;fontSize=8;entryX=0.5;entryY=0;entryDx=0;entryDy=0;" edge="1" parent="1" source="317" target="327">
                    <mxGeometry relative="1" as="geometry">
                        <mxPoint x="-640.2857142857142" y="600" as="targetPoint"/>
                    </mxGeometry>
                </mxCell>
                <mxCell id="317" value="&lt;font style=&quot;font-size: 10px;&quot;&gt;Is card in &lt;br&gt;deck =7?&lt;/font&gt;" style="strokeWidth=2;html=1;shape=mxgraph.flowchart.decision;whiteSpace=wrap;" vertex="1" parent="1">
                    <mxGeometry x="-682.25" y="485.5" width="84.5" height="90" as="geometry"/>
                </mxCell>
                <mxCell id="321" value="Yes" style="text;html=1;strokeColor=none;fillColor=none;align=center;verticalAlign=middle;whiteSpace=wrap;rounded=0;" vertex="1" parent="1">
                    <mxGeometry x="-682.25" y="575.5" width="56" height="13" as="geometry"/>
                </mxCell>
                <mxCell id="323" value="No" style="text;html=1;strokeColor=none;fillColor=none;align=center;verticalAlign=middle;whiteSpace=wrap;rounded=0;" vertex="1" parent="1">
                    <mxGeometry x="-610" y="537" width="56" height="13" as="geometry"/>
                </mxCell>
                <mxCell id="390" style="edgeStyle=none;html=1;exitX=0.5;exitY=1;exitDx=0;exitDy=0;entryX=0.5;entryY=0;entryDx=0;entryDy=0;entryPerimeter=0;fontSize=8;" edge="1" parent="1" source="326" target="386">
                    <mxGeometry relative="1" as="geometry"/>
                </mxCell>
                <mxCell id="326" value="&lt;div style=&quot;&quot;&gt;&lt;span style=&quot;font-size: 10px;&quot;&gt;User plays a card&lt;/span&gt;&lt;/div&gt;" style="shape=parallelogram;html=1;strokeWidth=2;perimeter=parallelogramPerimeter;whiteSpace=wrap;rounded=1;arcSize=12;size=0.23;align=center;" vertex="1" parent="1">
                    <mxGeometry x="-705.25" y="810" width="130" height="40" as="geometry"/>
                </mxCell>
                <mxCell id="329" style="edgeStyle=none;html=1;exitX=0.5;exitY=1;exitDx=0;exitDy=0;entryX=0.5;entryY=0;entryDx=0;entryDy=0;fontSize=8;" edge="1" parent="1" source="327" target="328">
                    <mxGeometry relative="1" as="geometry"/>
                </mxCell>
                <mxCell id="327" value="&lt;span style=&quot;font-size: 10px;&quot;&gt;Pick up card from draw pile&lt;/span&gt;" style="rounded=1;whiteSpace=wrap;html=1;absoluteArcSize=1;arcSize=14;strokeWidth=2;" vertex="1" parent="1">
                    <mxGeometry x="-680" y="600" width="80" height="30" as="geometry"/>
                </mxCell>
                <mxCell id="523" style="edgeStyle=none;html=1;exitX=0.5;exitY=1;exitDx=0;exitDy=0;entryX=0.5;entryY=0;entryDx=0;entryDy=0;entryPerimeter=0;fontSize=8;" edge="1" parent="1" source="328" target="521">
                    <mxGeometry relative="1" as="geometry"/>
                </mxCell>
                <mxCell id="328" value="&lt;font style=&quot;font-size: 10px;&quot;&gt;Place card in Playing Pile&lt;/font&gt;" style="rounded=1;whiteSpace=wrap;html=1;absoluteArcSize=1;arcSize=14;strokeWidth=2;" vertex="1" parent="1">
                    <mxGeometry x="-680.25" y="654" width="80" height="30" as="geometry"/>
                </mxCell>
                <mxCell id="331" value="Main" style="text;html=1;align=center;verticalAlign=middle;resizable=0;points=[];autosize=1;strokeColor=none;fillColor=none;" vertex="1" parent="1">
                    <mxGeometry x="-665.25" y="331" width="50" height="30" as="geometry"/>
                </mxCell>
                <mxCell id="418" style="edgeStyle=none;html=1;exitX=0.5;exitY=1;exitDx=0;exitDy=0;entryX=0.5;entryY=0;entryDx=0;entryDy=0;fontSize=8;" edge="1" parent="1" source="379" target="417">
                    <mxGeometry relative="1" as="geometry">
                        <mxPoint x="-639.245" y="1072" as="sourcePoint"/>
                    </mxGeometry>
                </mxCell>
                <mxCell id="334" value="User UNO" style="text;html=1;align=center;verticalAlign=middle;resizable=0;points=[];autosize=1;strokeColor=none;fillColor=none;" vertex="1" parent="1">
                    <mxGeometry x="45" y="320" width="80" height="30" as="geometry"/>
                </mxCell>
                <mxCell id="351" style="edgeStyle=none;html=1;exitX=0.5;exitY=1;exitDx=0;exitDy=0;exitPerimeter=0;entryX=0.5;entryY=0;entryDx=0;entryDy=0;fontSize=8;" edge="1" parent="1" source="600" target="339">
                    <mxGeometry relative="1" as="geometry">
                        <mxPoint x="85" y="502.5" as="sourcePoint"/>
                    </mxGeometry>
                </mxCell>
                <mxCell id="601" style="edgeStyle=none;html=1;exitX=0.5;exitY=1;exitDx=0;exitDy=0;exitPerimeter=0;entryX=0.5;entryY=0;entryDx=0;entryDy=0;entryPerimeter=0;fontSize=8;" edge="1" parent="1" source="335" target="600">
                    <mxGeometry relative="1" as="geometry"/>
                </mxCell>
                <mxCell id="335" value="&lt;font style=&quot;font-size: 10px;&quot;&gt;Start&lt;/font&gt;" style="strokeWidth=2;html=1;shape=mxgraph.flowchart.start_1;whiteSpace=wrap;" vertex="1" parent="1">
                    <mxGeometry x="45" y="360" width="80" height="22.5" as="geometry"/>
                </mxCell>
                <mxCell id="336" style="edgeStyle=none;html=1;exitX=0.5;exitY=1;exitDx=0;exitDy=0;exitPerimeter=0;entryX=0.499;entryY=-0.02;entryDx=0;entryDy=0;entryPerimeter=0;" edge="1" parent="1" source="337" target="463">
                    <mxGeometry relative="1" as="geometry">
                        <mxPoint x="85.22000000000003" y="714.69" as="targetPoint"/>
                        <mxPoint x="85.5" y="681.4999999999995" as="sourcePoint"/>
                    </mxGeometry>
                </mxCell>
                <mxCell id="361" style="edgeStyle=none;html=1;exitX=1;exitY=0.5;exitDx=0;exitDy=0;exitPerimeter=0;entryX=1;entryY=0.5;entryDx=0;entryDy=0;entryPerimeter=0;fontSize=8;" edge="1" parent="1" source="337">
                    <mxGeometry relative="1" as="geometry">
                        <mxPoint x="126" y="893.75" as="targetPoint"/>
                        <Array as="points">
                            <mxPoint x="160" y="637"/>
                            <mxPoint x="160" y="894"/>
                        </Array>
                    </mxGeometry>
                </mxCell>
                <mxCell id="337" value="&lt;span style=&quot;font-size: 10px;&quot;&gt;did player say&lt;br&gt;UNO faster?&lt;br&gt;&lt;/span&gt;" style="strokeWidth=2;html=1;shape=mxgraph.flowchart.decision;whiteSpace=wrap;" vertex="1" parent="1">
                    <mxGeometry x="45" y="591.5" width="80.5" height="90" as="geometry"/>
                </mxCell>
                <mxCell id="338" style="edgeStyle=none;html=1;exitX=0.5;exitY=1;exitDx=0;exitDy=0;entryX=0.5;entryY=0;entryDx=0;entryDy=0;entryPerimeter=0;fontSize=8;" edge="1" parent="1" source="339" target="337">
                    <mxGeometry relative="1" as="geometry">
                        <mxPoint x="84.99999999999977" y="541.4999999999995" as="sourcePoint"/>
                    </mxGeometry>
                </mxCell>
                <mxCell id="339" value="&lt;span style=&quot;font-size: 10px;&quot;&gt;Robot says UNO&lt;br&gt;&lt;/span&gt;" style="shape=parallelogram;html=1;strokeWidth=2;perimeter=parallelogramPerimeter;whiteSpace=wrap;rounded=1;arcSize=12;size=0.23;align=center;" vertex="1" parent="1">
                    <mxGeometry x="20.25" y="521.5" width="130" height="40" as="geometry"/>
                </mxCell>
                <mxCell id="360" style="edgeStyle=none;html=1;entryX=0.5;entryY=0;entryDx=0;entryDy=0;entryPerimeter=0;fontSize=8;exitX=0.5;exitY=1;exitDx=0;exitDy=0;exitPerimeter=0;" edge="1" parent="1" source="459">
                    <mxGeometry relative="1" as="geometry">
                        <mxPoint x="90" y="860" as="sourcePoint"/>
                        <mxPoint x="86" y="882.5" as="targetPoint"/>
                    </mxGeometry>
                </mxCell>
                <mxCell id="348" value="Yes" style="text;html=1;strokeColor=none;fillColor=none;align=center;verticalAlign=middle;whiteSpace=wrap;rounded=0;" vertex="1" parent="1">
                    <mxGeometry x="120" y="617" width="56" height="13" as="geometry"/>
                </mxCell>
                <mxCell id="350" value="No" style="text;html=1;strokeColor=none;fillColor=none;align=center;verticalAlign=middle;whiteSpace=wrap;rounded=0;" vertex="1" parent="1">
                    <mxGeometry x="70" y="687" width="56" height="13" as="geometry"/>
                </mxCell>
                <mxCell id="359" value="&lt;font style=&quot;font-size: 10px;&quot;&gt;End&lt;/font&gt;" style="strokeWidth=2;html=1;shape=mxgraph.flowchart.start_1;whiteSpace=wrap;" vertex="1" parent="1">
                    <mxGeometry x="45.25" y="882.5" width="80" height="22.5" as="geometry"/>
                </mxCell>
                <mxCell id="362" value="Robot UNO" style="text;html=1;align=center;verticalAlign=middle;resizable=0;points=[];autosize=1;strokeColor=none;fillColor=none;" vertex="1" parent="1">
                    <mxGeometry x="210.75" y="320" width="90" height="30" as="geometry"/>
                </mxCell>
                <mxCell id="363" style="edgeStyle=none;html=1;exitX=0.5;exitY=1;exitDx=0;exitDy=0;exitPerimeter=0;entryX=0.5;entryY=0;entryDx=0;entryDy=0;fontSize=8;" edge="1" parent="1" source="607" target="369">
                    <mxGeometry relative="1" as="geometry">
                        <mxPoint x="255.00000000000023" y="502.5" as="sourcePoint"/>
                    </mxGeometry>
                </mxCell>
                <mxCell id="608" style="edgeStyle=none;html=1;exitX=0.5;exitY=1;exitDx=0;exitDy=0;exitPerimeter=0;entryX=0.5;entryY=0;entryDx=0;entryDy=0;entryPerimeter=0;fontSize=8;" edge="1" parent="1" source="364" target="607">
                    <mxGeometry relative="1" as="geometry"/>
                </mxCell>
                <mxCell id="364" value="&lt;font style=&quot;font-size: 10px;&quot;&gt;Start&lt;/font&gt;" style="strokeWidth=2;html=1;shape=mxgraph.flowchart.start_1;whiteSpace=wrap;" vertex="1" parent="1">
                    <mxGeometry x="215" y="360" width="80" height="22.5" as="geometry"/>
                </mxCell>
                <mxCell id="365" style="edgeStyle=none;html=1;exitX=0.5;exitY=1;exitDx=0;exitDy=0;exitPerimeter=0;entryX=0.496;entryY=-0.077;entryDx=0;entryDy=0;entryPerimeter=0;" edge="1" parent="1" source="367" target="377">
                    <mxGeometry relative="1" as="geometry">
                        <mxPoint x="240" y="710" as="targetPoint"/>
                        <mxPoint x="255.5" y="681.4999999999995" as="sourcePoint"/>
                    </mxGeometry>
                </mxCell>
                <mxCell id="366" style="edgeStyle=none;html=1;exitX=1;exitY=0.5;exitDx=0;exitDy=0;exitPerimeter=0;entryX=1;entryY=0.5;entryDx=0;entryDy=0;entryPerimeter=0;fontSize=8;" edge="1" parent="1" source="367">
                    <mxGeometry relative="1" as="geometry">
                        <Array as="points">
                            <mxPoint x="330" y="637"/>
                            <mxPoint x="330" y="894"/>
                        </Array>
                        <mxPoint x="296" y="893.75" as="targetPoint"/>
                    </mxGeometry>
                </mxCell>
                <mxCell id="367" value="&lt;span style=&quot;font-size: 10px;&quot;&gt;did player say&lt;br&gt;UNO faster?&lt;br&gt;&lt;/span&gt;" style="strokeWidth=2;html=1;shape=mxgraph.flowchart.decision;whiteSpace=wrap;" vertex="1" parent="1">
                    <mxGeometry x="215" y="591.5" width="80.5" height="90" as="geometry"/>
                </mxCell>
                <mxCell id="368" style="edgeStyle=none;html=1;exitX=0.5;exitY=1;exitDx=0;exitDy=0;entryX=0.5;entryY=0;entryDx=0;entryDy=0;entryPerimeter=0;fontSize=8;" edge="1" parent="1" source="369" target="367">
                    <mxGeometry relative="1" as="geometry">
                        <mxPoint x="254.99999999999977" y="541.4999999999995" as="sourcePoint"/>
                    </mxGeometry>
                </mxCell>
                <mxCell id="369" value="&lt;span style=&quot;font-size: 10px;&quot;&gt;Robot says UNO&lt;br&gt;&lt;/span&gt;" style="shape=parallelogram;html=1;strokeWidth=2;perimeter=parallelogramPerimeter;whiteSpace=wrap;rounded=1;arcSize=12;size=0.23;align=center;" vertex="1" parent="1">
                    <mxGeometry x="190.25" y="521.5" width="130" height="40" as="geometry"/>
                </mxCell>
                <mxCell id="370" style="edgeStyle=none;html=1;exitX=0;exitY=0.5;exitDx=0;exitDy=0;exitPerimeter=0;entryX=0;entryY=0.5;entryDx=0;entryDy=0;strokeColor=#000000;" edge="1" parent="1" source="372">
                    <mxGeometry relative="1" as="geometry">
                        <Array as="points">
                            <mxPoint x="175" y="810"/>
                            <mxPoint x="175" y="728.5"/>
                        </Array>
                        <mxPoint x="215" y="727.5" as="targetPoint"/>
                    </mxGeometry>
                </mxCell>
                <mxCell id="371" style="edgeStyle=none;html=1;exitX=0.5;exitY=1;exitDx=0;exitDy=0;exitPerimeter=0;entryX=0.5;entryY=0;entryDx=0;entryDy=0;entryPerimeter=0;fontSize=8;" edge="1" parent="1" source="372">
                    <mxGeometry relative="1" as="geometry">
                        <mxPoint x="256" y="882.5" as="targetPoint"/>
                    </mxGeometry>
                </mxCell>
                <mxCell id="372" value="&lt;span style=&quot;font-size: 10px;&quot;&gt;Did robot&lt;br&gt;pick 2 cards?&lt;/span&gt;" style="strokeWidth=2;html=1;shape=mxgraph.flowchart.decision;whiteSpace=wrap;" vertex="1" parent="1">
                    <mxGeometry x="215.5" y="765" width="80.5" height="90" as="geometry"/>
                </mxCell>
                <mxCell id="373" value="No" style="text;html=1;strokeColor=none;fillColor=none;align=center;verticalAlign=middle;whiteSpace=wrap;rounded=0;" vertex="1" parent="1">
                    <mxGeometry x="290" y="617" width="56" height="13" as="geometry"/>
                </mxCell>
                <mxCell id="374" value="Yes" style="text;html=1;strokeColor=none;fillColor=none;align=center;verticalAlign=middle;whiteSpace=wrap;rounded=0;" vertex="1" parent="1">
                    <mxGeometry x="240" y="687" width="56" height="13" as="geometry"/>
                </mxCell>
                <mxCell id="375" value="" style="verticalLabelPosition=bottom;verticalAlign=top;html=1;shape=process;whiteSpace=wrap;rounded=1;size=0.14;arcSize=6;" vertex="1" parent="1">
                    <mxGeometry x="215.5" y="715" width="80" height="35" as="geometry"/>
                </mxCell>
                <mxCell id="376" style="edgeStyle=none;html=1;entryX=0.5;entryY=0;entryDx=0;entryDy=0;entryPerimeter=0;fontSize=8;" edge="1" parent="1" source="377" target="372">
                    <mxGeometry relative="1" as="geometry"/>
                </mxCell>
                <mxCell id="377" value="&lt;font style=&quot;font-size: 8px;&quot;&gt;Pick Up Card&lt;/font&gt;" style="text;html=1;align=center;verticalAlign=middle;resizable=0;points=[];autosize=1;strokeColor=none;fillColor=none;" vertex="1" parent="1">
                    <mxGeometry x="220.5" y="717" width="70" height="30" as="geometry"/>
                </mxCell>
                <mxCell id="378" value="&lt;font style=&quot;font-size: 10px;&quot;&gt;End&lt;/font&gt;" style="strokeWidth=2;html=1;shape=mxgraph.flowchart.start_1;whiteSpace=wrap;" vertex="1" parent="1">
                    <mxGeometry x="216" y="886" width="80" height="22.5" as="geometry"/>
                </mxCell>
                <mxCell id="379" value="" style="verticalLabelPosition=bottom;verticalAlign=top;html=1;shape=process;whiteSpace=wrap;rounded=1;size=0.14;arcSize=6;" vertex="1" parent="1">
                    <mxGeometry x="-679.25" y="1007.25" width="80" height="35" as="geometry"/>
                </mxCell>
                <mxCell id="380" value="&lt;font style=&quot;font-size: 8px;&quot;&gt;User UNO&lt;/font&gt;" style="text;html=1;align=center;verticalAlign=middle;resizable=0;points=[];autosize=1;strokeColor=none;fillColor=none;" vertex="1" parent="1">
                    <mxGeometry x="-669.25" y="1009.75" width="60" height="30" as="geometry"/>
                </mxCell>
                <mxCell id="385" style="edgeStyle=none;html=1;exitX=1;exitY=0.5;exitDx=0;exitDy=0;exitPerimeter=0;entryX=0;entryY=0.5;entryDx=0;entryDy=0;fontSize=8;entryPerimeter=0;" edge="1" parent="1" source="386" target="394">
                    <mxGeometry relative="1" as="geometry">
                        <mxPoint x="-566.06" y="915" as="targetPoint"/>
                    </mxGeometry>
                </mxCell>
                <mxCell id="391" style="edgeStyle=none;html=1;exitX=0.5;exitY=1;exitDx=0;exitDy=0;exitPerimeter=0;entryX=0.504;entryY=0.008;entryDx=0;entryDy=0;entryPerimeter=0;fontSize=8;" edge="1" parent="1" source="386" target="380">
                    <mxGeometry relative="1" as="geometry">
                        <mxPoint x="-639.245" y="979" as="targetPoint"/>
                    </mxGeometry>
                </mxCell>
                <mxCell id="386" value="&lt;span style=&quot;font-size: 10px;&quot;&gt;does user have&amp;nbsp;&lt;br&gt;0 cards left?&lt;br&gt;&lt;/span&gt;" style="strokeWidth=2;html=1;shape=mxgraph.flowchart.decision;whiteSpace=wrap;" vertex="1" parent="1">
                    <mxGeometry x="-685.93" y="868.5" width="92.25" height="93" as="geometry"/>
                </mxCell>
                <mxCell id="389" value="Yes" style="text;html=1;strokeColor=none;fillColor=none;align=center;verticalAlign=middle;whiteSpace=wrap;rounded=0;" vertex="1" parent="1">
                    <mxGeometry x="-612.06" y="897.5" width="56" height="13" as="geometry"/>
                </mxCell>
                <mxCell id="392" value="No" style="text;html=1;strokeColor=none;fillColor=none;align=center;verticalAlign=middle;whiteSpace=wrap;rounded=0;" vertex="1" parent="1">
                    <mxGeometry x="-649.12" y="961.5" width="56" height="13" as="geometry"/>
                </mxCell>
                <mxCell id="394" value="&lt;font style=&quot;font-size: 10px;&quot;&gt;End&lt;/font&gt;" style="strokeWidth=2;html=1;shape=mxgraph.flowchart.start_1;whiteSpace=wrap;" vertex="1" parent="1">
                    <mxGeometry x="-562.5" y="903.75" width="80" height="22.5" as="geometry"/>
                </mxCell>
                <mxCell id="395" value="Reshuffle" style="text;html=1;align=center;verticalAlign=middle;resizable=0;points=[];autosize=1;strokeColor=none;fillColor=none;" vertex="1" parent="1">
                    <mxGeometry x="-1246" y="325" width="70" height="30" as="geometry"/>
                </mxCell>
                <mxCell id="400" style="edgeStyle=none;html=1;entryX=0.5;entryY=0;entryDx=0;entryDy=0;entryPerimeter=0;" edge="1" parent="1" target="404">
                    <mxGeometry relative="1" as="geometry">
                        <mxPoint x="-1211" y="525" as="sourcePoint"/>
                        <mxPoint x="-1211.2900000000004" y="535" as="targetPoint"/>
                    </mxGeometry>
                </mxCell>
                <mxCell id="402" style="edgeStyle=none;html=1;exitX=0.5;exitY=1;exitDx=0;exitDy=0;exitPerimeter=0;entryX=0.5;entryY=0;entryDx=0;entryDy=0;entryPerimeter=0;" edge="1" parent="1" source="403" target="405">
                    <mxGeometry relative="1" as="geometry">
                        <mxPoint x="-1211.2900000000004" y="415" as="sourcePoint"/>
                        <mxPoint x="-1211" y="405" as="targetPoint"/>
                    </mxGeometry>
                </mxCell>
                <mxCell id="403" value="&lt;font style=&quot;font-size: 10px;&quot;&gt;Start&lt;/font&gt;" style="strokeWidth=2;html=1;shape=mxgraph.flowchart.start_1;whiteSpace=wrap;" vertex="1" parent="1">
                    <mxGeometry x="-1251" y="359.5" width="80" height="22.5" as="geometry"/>
                </mxCell>
                <mxCell id="404" value="&lt;font style=&quot;font-size: 10px;&quot;&gt;End&lt;/font&gt;" style="strokeWidth=2;html=1;shape=mxgraph.flowchart.start_1;whiteSpace=wrap;" vertex="1" parent="1">
                    <mxGeometry x="-1251" y="549.5" width="80" height="22.5" as="geometry"/>
                </mxCell>
                <mxCell id="411" style="edgeStyle=none;html=1;exitX=0.5;exitY=1;exitDx=0;exitDy=0;exitPerimeter=0;entryX=0.5;entryY=0;entryDx=0;entryDy=0;entryPerimeter=0;fontSize=8;" edge="1" parent="1" source="405" target="404">
                    <mxGeometry relative="1" as="geometry"/>
                </mxCell>
                <mxCell id="405" value="&lt;font style=&quot;font-size: 10px;&quot;&gt;is draw pile&lt;br&gt;empty?&lt;br&gt;&lt;/font&gt;" style="strokeWidth=2;html=1;shape=mxgraph.flowchart.decision;whiteSpace=wrap;" vertex="1" parent="1">
                    <mxGeometry x="-1251" y="406.5" width="80.5" height="90" as="geometry"/>
                </mxCell>
                <mxCell id="406" value="Yes" style="text;html=1;strokeColor=none;fillColor=none;align=center;verticalAlign=middle;whiteSpace=wrap;rounded=0;" vertex="1" parent="1">
                    <mxGeometry x="-1172" y="436.5" width="56" height="13" as="geometry"/>
                </mxCell>
                <mxCell id="407" style="edgeStyle=none;html=1;exitX=1;exitY=0.5;exitDx=0;exitDy=0;exitPerimeter=0;fontSize=8;startArrow=none;entryX=0;entryY=0.5;entryDx=0;entryDy=0;" edge="1" parent="1" source="405" target="409">
                    <mxGeometry relative="1" as="geometry">
                        <mxPoint x="-1200.75" y="506.5" as="sourcePoint"/>
                        <mxPoint x="-1114" y="451.5" as="targetPoint"/>
                    </mxGeometry>
                </mxCell>
                <mxCell id="408" value="No" style="text;html=1;strokeColor=none;fillColor=none;align=center;verticalAlign=middle;whiteSpace=wrap;rounded=0;" vertex="1" parent="1">
                    <mxGeometry x="-1251" y="496.5" width="56" height="13" as="geometry"/>
                </mxCell>
                <mxCell id="485" style="edgeStyle=none;html=1;exitX=0.5;exitY=1;exitDx=0;exitDy=0;entryX=0.5;entryY=0;entryDx=0;entryDy=0;fontSize=8;" edge="1" parent="1" source="409" target="484">
                    <mxGeometry relative="1" as="geometry"/>
                </mxCell>
                <mxCell id="409" value="&lt;div style=&quot;&quot;&gt;&lt;span style=&quot;font-size: 10px;&quot;&gt;Ask user to reshuffle&lt;/span&gt;&lt;/div&gt;" style="shape=parallelogram;html=1;strokeWidth=2;perimeter=parallelogramPerimeter;whiteSpace=wrap;rounded=1;arcSize=12;size=0.23;align=center;" vertex="1" parent="1">
                    <mxGeometry x="-1127.37" y="431.5" width="130" height="40" as="geometry"/>
                </mxCell>
                <mxCell id="416" style="edgeStyle=none;html=1;exitX=0.5;exitY=1;exitDx=0;exitDy=0;entryX=0.5;entryY=0;entryDx=0;entryDy=0;fontSize=8;" edge="1" parent="1" source="413" target="299">
                    <mxGeometry relative="1" as="geometry"/>
                </mxCell>
                <mxCell id="413" value="" style="verticalLabelPosition=bottom;verticalAlign=top;html=1;shape=process;whiteSpace=wrap;rounded=1;size=0.14;arcSize=6;" vertex="1" parent="1">
                    <mxGeometry x="-1465" y="401.5" width="80" height="35" as="geometry"/>
                </mxCell>
                <mxCell id="414" value="&lt;span style=&quot;font-size: 8px;&quot;&gt;Reshuffle&lt;/span&gt;" style="text;html=1;align=center;verticalAlign=middle;resizable=0;points=[];autosize=1;strokeColor=none;fillColor=none;" vertex="1" parent="1">
                    <mxGeometry x="-1455" y="403.5" width="60" height="30" as="geometry"/>
                </mxCell>
                <mxCell id="421" style="edgeStyle=none;html=1;exitX=0.5;exitY=1;exitDx=0;exitDy=0;entryX=0.5;entryY=0;entryDx=0;entryDy=0;entryPerimeter=0;fontSize=8;" edge="1" parent="1" source="417" target="420">
                    <mxGeometry relative="1" as="geometry"/>
                </mxCell>
                <mxCell id="417" value="&lt;font style=&quot;font-size: 10px;&quot;&gt;Read card from camera&lt;/font&gt;" style="rounded=1;whiteSpace=wrap;html=1;absoluteArcSize=1;arcSize=14;strokeWidth=2;" vertex="1" parent="1">
                    <mxGeometry x="-678.24" y="1093" width="80" height="30" as="geometry"/>
                </mxCell>
                <mxCell id="422" style="edgeStyle=none;html=1;exitX=0;exitY=0.5;exitDx=0;exitDy=0;exitPerimeter=0;fontSize=8;entryX=1;entryY=0.5;entryDx=0;entryDy=0;entryPerimeter=0;" edge="1" parent="1" source="420" target="424">
                    <mxGeometry relative="1" as="geometry">
                        <mxPoint x="-710" y="1185.2857142857142" as="targetPoint"/>
                    </mxGeometry>
                </mxCell>
                <mxCell id="428" style="edgeStyle=none;html=1;exitX=0.5;exitY=1;exitDx=0;exitDy=0;exitPerimeter=0;entryX=0.5;entryY=0;entryDx=0;entryDy=0;entryPerimeter=0;fontSize=8;" edge="1" parent="1" source="420" target="427">
                    <mxGeometry relative="1" as="geometry"/>
                </mxCell>
                <mxCell id="420" value="&lt;font style=&quot;font-size: 10px;&quot;&gt;is card a skip/reverse?&lt;/font&gt;" style="strokeWidth=2;html=1;shape=mxgraph.flowchart.decision;whiteSpace=wrap;" vertex="1" parent="1">
                    <mxGeometry x="-678.24" y="1140" width="80.5" height="90" as="geometry"/>
                </mxCell>
                <mxCell id="424" value="A" style="strokeWidth=2;html=1;shape=mxgraph.flowchart.start_1;whiteSpace=wrap;fontSize=8;" vertex="1" parent="1">
                    <mxGeometry x="-750" y="1170" width="30" height="30" as="geometry"/>
                </mxCell>
                <mxCell id="524" style="edgeStyle=none;html=1;exitX=1;exitY=0.5;exitDx=0;exitDy=0;exitPerimeter=0;entryX=0;entryY=0.5;entryDx=0;entryDy=0;entryPerimeter=0;fontSize=8;" edge="1" parent="1" source="425" target="521">
                    <mxGeometry relative="1" as="geometry"/>
                </mxCell>
                <mxCell id="425" value="A" style="strokeWidth=2;html=1;shape=mxgraph.flowchart.start_1;whiteSpace=wrap;fontSize=8;" vertex="1" parent="1">
                    <mxGeometry x="-757.88" y="730" width="30" height="30" as="geometry"/>
                </mxCell>
                <mxCell id="432" style="edgeStyle=none;html=1;exitX=0;exitY=0.5;exitDx=0;exitDy=0;exitPerimeter=0;entryX=1;entryY=0.5;entryDx=0;entryDy=0;fontSize=8;" edge="1" parent="1" source="427" target="430">
                    <mxGeometry relative="1" as="geometry">
                        <mxPoint x="-687.12" y="1293.5" as="sourcePoint"/>
                    </mxGeometry>
                </mxCell>
                <mxCell id="468" style="edgeStyle=none;html=1;exitX=0.5;exitY=1;exitDx=0;exitDy=0;exitPerimeter=0;entryX=0.5;entryY=0;entryDx=0;entryDy=0;entryPerimeter=0;fontSize=8;" edge="1" parent="1" source="427" target="467">
                    <mxGeometry relative="1" as="geometry"/>
                </mxCell>
                <mxCell id="427" value="&lt;font style=&quot;font-size: 10px;&quot;&gt;is card a &lt;br&gt;+2?&lt;/font&gt;" style="strokeWidth=2;html=1;shape=mxgraph.flowchart.decision;whiteSpace=wrap;" vertex="1" parent="1">
                    <mxGeometry x="-678.24" y="1250" width="80.5" height="90" as="geometry"/>
                </mxCell>
                <mxCell id="434" style="edgeStyle=none;html=1;exitX=0.5;exitY=1;exitDx=0;exitDy=0;entryX=0.5;entryY=0;entryDx=0;entryDy=0;entryPerimeter=0;fontSize=8;" edge="1" parent="1" source="430" target="433">
                    <mxGeometry relative="1" as="geometry"/>
                </mxCell>
                <mxCell id="430" value="" style="verticalLabelPosition=bottom;verticalAlign=top;html=1;shape=process;whiteSpace=wrap;rounded=1;size=0.14;arcSize=6;" vertex="1" parent="1">
                    <mxGeometry x="-782.8800000000001" y="1277.5" width="80" height="35" as="geometry"/>
                </mxCell>
                <mxCell id="431" value="&lt;font style=&quot;font-size: 8px;&quot;&gt;Pick Up Card&lt;/font&gt;" style="text;html=1;align=center;verticalAlign=middle;resizable=0;points=[];autosize=1;strokeColor=none;fillColor=none;" vertex="1" parent="1">
                    <mxGeometry x="-777.8800000000001" y="1279.5" width="70" height="30" as="geometry"/>
                </mxCell>
                <mxCell id="440" style="edgeStyle=none;html=1;exitX=0;exitY=0.5;exitDx=0;exitDy=0;exitPerimeter=0;entryX=0;entryY=0.5;entryDx=0;entryDy=0;fontSize=8;" edge="1" parent="1" source="433" target="430">
                    <mxGeometry relative="1" as="geometry">
                        <Array as="points">
                            <mxPoint x="-810" y="1380"/>
                            <mxPoint x="-810" y="1295"/>
                        </Array>
                    </mxGeometry>
                </mxCell>
                <mxCell id="442" style="edgeStyle=none;html=1;exitX=0.5;exitY=1;exitDx=0;exitDy=0;exitPerimeter=0;fontSize=8;entryX=0.5;entryY=0;entryDx=0;entryDy=0;entryPerimeter=0;" edge="1" parent="1" source="433" target="443">
                    <mxGeometry relative="1" as="geometry">
                        <mxPoint x="-742.7619047619048" y="1440" as="targetPoint"/>
                    </mxGeometry>
                </mxCell>
                <mxCell id="433" value="&lt;span style=&quot;font-size: 10px;&quot;&gt;Did robot&lt;br&gt;pick 2 cards?&lt;/span&gt;" style="strokeWidth=2;html=1;shape=mxgraph.flowchart.decision;whiteSpace=wrap;" vertex="1" parent="1">
                    <mxGeometry x="-782.8800000000001" y="1335" width="80.5" height="90" as="geometry"/>
                </mxCell>
                <mxCell id="435" value="Yes" style="text;html=1;strokeColor=none;fillColor=none;align=center;verticalAlign=middle;whiteSpace=wrap;rounded=0;" vertex="1" parent="1">
                    <mxGeometry x="-721.25" y="1170" width="56" height="13" as="geometry"/>
                </mxCell>
                <mxCell id="436" value="No" style="text;html=1;strokeColor=none;fillColor=none;align=center;verticalAlign=middle;whiteSpace=wrap;rounded=0;" vertex="1" parent="1">
                    <mxGeometry x="-649.12" y="1230" width="56" height="13" as="geometry"/>
                </mxCell>
                <mxCell id="437" value="Yes" style="text;html=1;strokeColor=none;fillColor=none;align=center;verticalAlign=middle;whiteSpace=wrap;rounded=0;" vertex="1" parent="1">
                    <mxGeometry x="-717" y="1299.5" width="56" height="13" as="geometry"/>
                </mxCell>
                <mxCell id="443" value="A" style="strokeWidth=2;html=1;shape=mxgraph.flowchart.start_1;whiteSpace=wrap;fontSize=8;" vertex="1" parent="1">
                    <mxGeometry x="-757.63" y="1445.5" width="30" height="30" as="geometry"/>
                </mxCell>
                <mxCell id="444" style="edgeStyle=none;html=1;exitX=0.5;exitY=1;exitDx=0;exitDy=0;" edge="1" parent="1" source="445" target="447">
                    <mxGeometry relative="1" as="geometry"/>
                </mxCell>
                <mxCell id="445" value="&lt;font style=&quot;font-size: 10px;&quot;&gt;Pick up card from draw pile&lt;/font&gt;" style="rounded=1;whiteSpace=wrap;html=1;absoluteArcSize=1;arcSize=14;strokeWidth=2;" vertex="1" parent="1">
                    <mxGeometry x="-1355" y="452" width="80" height="30" as="geometry"/>
                </mxCell>
                <mxCell id="447" value="&lt;span style=&quot;font-size: 10px;&quot;&gt;Place card in front of player&lt;/span&gt;" style="rounded=1;whiteSpace=wrap;html=1;absoluteArcSize=1;arcSize=14;strokeWidth=2;" vertex="1" parent="1">
                    <mxGeometry x="-1355" y="502" width="80" height="30" as="geometry"/>
                </mxCell>
                <mxCell id="448" style="edgeStyle=none;html=1;entryX=0.5;entryY=0;entryDx=0;entryDy=0;entryPerimeter=0;exitX=0.5;exitY=1;exitDx=0;exitDy=0;" edge="1" parent="1" source="447" target="452">
                    <mxGeometry relative="1" as="geometry">
                        <mxPoint x="-1315" y="600.0000000000001" as="targetPoint"/>
                        <mxPoint x="-1315" y="580" as="sourcePoint"/>
                    </mxGeometry>
                </mxCell>
                <mxCell id="450" style="edgeStyle=none;html=1;exitX=0.5;exitY=1;exitDx=0;exitDy=0;exitPerimeter=0;entryX=0.499;entryY=0.021;entryDx=0;entryDy=0;entryPerimeter=0;fontSize=8;" edge="1" parent="1" source="451" target="456">
                    <mxGeometry relative="1" as="geometry">
                        <mxPoint x="-1315" y="392.5" as="sourcePoint"/>
                    </mxGeometry>
                </mxCell>
                <mxCell id="451" value="&lt;font style=&quot;font-size: 10px;&quot;&gt;Start&lt;/font&gt;" style="strokeWidth=2;html=1;shape=mxgraph.flowchart.start_1;whiteSpace=wrap;" vertex="1" parent="1">
                    <mxGeometry x="-1355" y="360" width="80" height="22.5" as="geometry"/>
                </mxCell>
                <mxCell id="452" value="&lt;font style=&quot;font-size: 10px;&quot;&gt;End&lt;/font&gt;" style="strokeWidth=2;html=1;shape=mxgraph.flowchart.start_1;whiteSpace=wrap;" vertex="1" parent="1">
                    <mxGeometry x="-1355" y="549.5" width="80" height="22.5" as="geometry"/>
                </mxCell>
                <mxCell id="453" value="Give User Card" style="text;html=1;align=center;verticalAlign=middle;resizable=0;points=[];autosize=1;strokeColor=none;fillColor=none;" vertex="1" parent="1">
                    <mxGeometry x="-1370" y="320" width="110" height="30" as="geometry"/>
                </mxCell>
                <mxCell id="454" style="edgeStyle=none;html=1;exitX=0.5;exitY=1;exitDx=0;exitDy=0;entryX=0.5;entryY=0;entryDx=0;entryDy=0;fontSize=8;" edge="1" parent="1" source="455" target="445">
                    <mxGeometry relative="1" as="geometry"/>
                </mxCell>
                <mxCell id="455" value="" style="verticalLabelPosition=bottom;verticalAlign=top;html=1;shape=process;whiteSpace=wrap;rounded=1;size=0.14;arcSize=6;" vertex="1" parent="1">
                    <mxGeometry x="-1355" y="401.5" width="80" height="35" as="geometry"/>
                </mxCell>
                <mxCell id="456" value="&lt;span style=&quot;font-size: 8px;&quot;&gt;Reshuffle&lt;/span&gt;" style="text;html=1;align=center;verticalAlign=middle;resizable=0;points=[];autosize=1;strokeColor=none;fillColor=none;" vertex="1" parent="1">
                    <mxGeometry x="-1345" y="403.5" width="60" height="30" as="geometry"/>
                </mxCell>
                <mxCell id="458" style="edgeStyle=none;html=1;exitX=0;exitY=0.5;exitDx=0;exitDy=0;exitPerimeter=0;entryX=0;entryY=0.5;entryDx=0;entryDy=0;strokeColor=#000000;" edge="1" parent="1" source="459">
                    <mxGeometry relative="1" as="geometry">
                        <Array as="points">
                            <mxPoint x="5" y="810"/>
                            <mxPoint x="5" y="728.5"/>
                        </Array>
                        <mxPoint x="44.99999999999977" y="727.5" as="targetPoint"/>
                    </mxGeometry>
                </mxCell>
                <mxCell id="459" value="&lt;span style=&quot;font-size: 10px;&quot;&gt;Did User&lt;br&gt;get 2 cards?&lt;/span&gt;" style="strokeWidth=2;html=1;shape=mxgraph.flowchart.decision;whiteSpace=wrap;" vertex="1" parent="1">
                    <mxGeometry x="45.5" y="765" width="80.5" height="90" as="geometry"/>
                </mxCell>
                <mxCell id="461" value="" style="verticalLabelPosition=bottom;verticalAlign=top;html=1;shape=process;whiteSpace=wrap;rounded=1;size=0.14;arcSize=6;" vertex="1" parent="1">
                    <mxGeometry x="45.5" y="715" width="80" height="35" as="geometry"/>
                </mxCell>
                <mxCell id="462" style="edgeStyle=none;html=1;entryX=0.5;entryY=0;entryDx=0;entryDy=0;entryPerimeter=0;fontSize=8;" edge="1" parent="1" source="463" target="459">
                    <mxGeometry relative="1" as="geometry"/>
                </mxCell>
                <mxCell id="463" value="&lt;font style=&quot;font-size: 8px;&quot;&gt;Give User Card&lt;/font&gt;" style="text;html=1;align=center;verticalAlign=middle;resizable=0;points=[];autosize=1;strokeColor=none;fillColor=none;" vertex="1" parent="1">
                    <mxGeometry x="45.5" y="717" width="80" height="30" as="geometry"/>
                </mxCell>
                <mxCell id="478" style="edgeStyle=none;html=1;exitX=1;exitY=0.5;exitDx=0;exitDy=0;exitPerimeter=0;entryX=0;entryY=0.5;entryDx=0;entryDy=0;fontSize=8;" edge="1" parent="1" source="467" target="471">
                    <mxGeometry relative="1" as="geometry"/>
                </mxCell>
                <mxCell id="502" style="edgeStyle=none;html=1;exitX=0.5;exitY=1;exitDx=0;exitDy=0;exitPerimeter=0;entryX=0.5;entryY=0;entryDx=0;entryDy=0;entryPerimeter=0;fontSize=8;" edge="1" parent="1" source="467" target="495">
                    <mxGeometry relative="1" as="geometry"/>
                </mxCell>
                <mxCell id="467" value="&lt;font style=&quot;font-size: 10px;&quot;&gt;is card a &lt;br&gt;+4?&lt;/font&gt;" style="strokeWidth=2;html=1;shape=mxgraph.flowchart.decision;whiteSpace=wrap;" vertex="1" parent="1">
                    <mxGeometry x="-678.24" y="1364.5" width="80.5" height="90" as="geometry"/>
                </mxCell>
                <mxCell id="470" style="edgeStyle=none;html=1;exitX=0.5;exitY=1;exitDx=0;exitDy=0;entryX=0.5;entryY=0;entryDx=0;entryDy=0;entryPerimeter=0;fontSize=8;" edge="1" parent="1" source="471">
                    <mxGeometry relative="1" as="geometry">
                        <mxPoint x="-536.8800000000001" y="1449.5" as="targetPoint"/>
                    </mxGeometry>
                </mxCell>
                <mxCell id="471" value="" style="verticalLabelPosition=bottom;verticalAlign=top;html=1;shape=process;whiteSpace=wrap;rounded=1;size=0.14;arcSize=6;" vertex="1" parent="1">
                    <mxGeometry x="-577.1300000000001" y="1392" width="80" height="35" as="geometry"/>
                </mxCell>
                <mxCell id="472" value="&lt;font style=&quot;font-size: 8px;&quot;&gt;Pick Up Card&lt;/font&gt;" style="text;html=1;align=center;verticalAlign=middle;resizable=0;points=[];autosize=1;strokeColor=none;fillColor=none;" vertex="1" parent="1">
                    <mxGeometry x="-572.1300000000001" y="1394" width="70" height="30" as="geometry"/>
                </mxCell>
                <mxCell id="474" style="edgeStyle=none;html=1;exitX=0.5;exitY=1;exitDx=0;exitDy=0;exitPerimeter=0;fontSize=8;entryX=0.5;entryY=0;entryDx=0;entryDy=0;entryPerimeter=0;" edge="1" parent="1" source="475" target="477">
                    <mxGeometry relative="1" as="geometry">
                        <mxPoint x="-537.0119047619048" y="1552.5" as="targetPoint"/>
                    </mxGeometry>
                </mxCell>
                <mxCell id="479" style="edgeStyle=none;html=1;exitX=1;exitY=0.5;exitDx=0;exitDy=0;exitPerimeter=0;entryX=1;entryY=0.5;entryDx=0;entryDy=0;fontSize=8;" edge="1" parent="1" source="475" target="471">
                    <mxGeometry relative="1" as="geometry">
                        <Array as="points">
                            <mxPoint x="-468" y="1490"/>
                            <mxPoint x="-468" y="1410"/>
                        </Array>
                    </mxGeometry>
                </mxCell>
                <mxCell id="480" style="edgeStyle=none;html=1;exitX=0.5;exitY=0;exitDx=0;exitDy=0;exitPerimeter=0;fontSize=8;" edge="1" parent="1" source="475">
                    <mxGeometry relative="1" as="geometry">
                        <mxPoint x="-536.695652173913" y="1445.6521739130435" as="targetPoint"/>
                    </mxGeometry>
                </mxCell>
                <mxCell id="475" value="&lt;span style=&quot;font-size: 10px;&quot;&gt;Did robot&lt;br&gt;pick 4 cards?&lt;/span&gt;" style="strokeWidth=2;html=1;shape=mxgraph.flowchart.decision;whiteSpace=wrap;" vertex="1" parent="1">
                    <mxGeometry x="-577.1300000000001" y="1445.5" width="80.5" height="90" as="geometry"/>
                </mxCell>
                <mxCell id="476" value="No" style="text;html=1;strokeColor=none;fillColor=none;align=center;verticalAlign=middle;whiteSpace=wrap;rounded=0;" vertex="1" parent="1">
                    <mxGeometry x="-510" y="1495.5" width="56" height="13" as="geometry"/>
                </mxCell>
                <mxCell id="477" value="A" style="strokeWidth=2;html=1;shape=mxgraph.flowchart.start_1;whiteSpace=wrap;fontSize=8;" vertex="1" parent="1">
                    <mxGeometry x="-551.88" y="1552.5" width="30" height="30" as="geometry"/>
                </mxCell>
                <mxCell id="481" value="No" style="text;html=1;strokeColor=none;fillColor=none;align=center;verticalAlign=middle;whiteSpace=wrap;rounded=0;" vertex="1" parent="1">
                    <mxGeometry x="-830" y="1381" width="56" height="13" as="geometry"/>
                </mxCell>
                <mxCell id="482" value="Yes" style="text;html=1;strokeColor=none;fillColor=none;align=center;verticalAlign=middle;whiteSpace=wrap;rounded=0;" vertex="1" parent="1">
                    <mxGeometry x="-757.63" y="1423" width="56" height="13" as="geometry"/>
                </mxCell>
                <mxCell id="483" value="Yes" style="text;html=1;strokeColor=none;fillColor=none;align=center;verticalAlign=middle;whiteSpace=wrap;rounded=0;" vertex="1" parent="1">
                    <mxGeometry x="-546" y="1535.5" width="56" height="13" as="geometry"/>
                </mxCell>
                <mxCell id="486" style="edgeStyle=none;html=1;exitX=0;exitY=0.5;exitDx=0;exitDy=0;entryX=0.5;entryY=0;entryDx=0;entryDy=0;entryPerimeter=0;fontSize=8;" edge="1" parent="1" source="484" target="404">
                    <mxGeometry relative="1" as="geometry">
                        <Array as="points">
                            <mxPoint x="-1210" y="512"/>
                        </Array>
                    </mxGeometry>
                </mxCell>
                <mxCell id="484" value="&lt;span style=&quot;font-size: 10px;&quot;&gt;User Shuffles cards&lt;/span&gt;" style="rounded=1;whiteSpace=wrap;html=1;absoluteArcSize=1;arcSize=14;strokeWidth=2;" vertex="1" parent="1">
                    <mxGeometry x="-1102.37" y="496.5" width="80" height="30" as="geometry"/>
                </mxCell>
                <mxCell id="488" value="Yes" style="text;html=1;strokeColor=none;fillColor=none;align=center;verticalAlign=middle;whiteSpace=wrap;rounded=0;" vertex="1" parent="1">
                    <mxGeometry x="-618.5" y="1392" width="56" height="13" as="geometry"/>
                </mxCell>
                <mxCell id="493" style="edgeStyle=none;html=1;exitX=0;exitY=0.5;exitDx=0;exitDy=0;exitPerimeter=0;entryX=1;entryY=0.5;entryDx=0;entryDy=0;strokeColor=#000000;" edge="1" parent="1" source="495" target="497">
                    <mxGeometry relative="1" as="geometry"/>
                </mxCell>
                <mxCell id="540" style="edgeStyle=none;html=1;exitX=0.5;exitY=1;exitDx=0;exitDy=0;exitPerimeter=0;entryX=0.5;entryY=0;entryDx=0;entryDy=0;entryPerimeter=0;fontSize=8;" edge="1" parent="1" source="495" target="539">
                    <mxGeometry relative="1" as="geometry"/>
                </mxCell>
                <mxCell id="495" value="&lt;font style=&quot;font-size: 10px;&quot;&gt;is card a &lt;br&gt;wild card?&lt;/font&gt;" style="strokeWidth=2;html=1;shape=mxgraph.flowchart.decision;whiteSpace=wrap;" vertex="1" parent="1">
                    <mxGeometry x="-678.2500000000001" y="1480" width="80.5" height="90" as="geometry"/>
                </mxCell>
                <mxCell id="496" style="edgeStyle=none;html=1;exitX=0.5;exitY=1;exitDx=0;exitDy=0;entryX=0.5;entryY=0;entryDx=0;entryDy=0;fontSize=8;" edge="1" parent="1" source="497" target="501">
                    <mxGeometry relative="1" as="geometry">
                        <mxPoint x="-537.6199999999999" y="1715" as="targetPoint"/>
                    </mxGeometry>
                </mxCell>
                <mxCell id="497" value="&lt;div style=&quot;&quot;&gt;&lt;span style=&quot;font-size: 10px; background-color: initial;&quot;&gt;Ask user&lt;/span&gt;&lt;/div&gt;&lt;span style=&quot;font-size: 10px;&quot;&gt;&lt;div style=&quot;&quot;&gt;&lt;span style=&quot;background-color: initial;&quot;&gt;which colour to use&amp;nbsp;&lt;/span&gt;&lt;/div&gt;&lt;/span&gt;" style="shape=parallelogram;html=1;strokeWidth=2;perimeter=parallelogramPerimeter;whiteSpace=wrap;rounded=1;arcSize=12;size=0.23;align=center;" vertex="1" parent="1">
                    <mxGeometry x="-830.0000000000001" y="1505" width="130" height="40" as="geometry"/>
                </mxCell>
                <mxCell id="498" value="Yes" style="text;html=1;strokeColor=none;fillColor=none;align=center;verticalAlign=middle;whiteSpace=wrap;rounded=0;" vertex="1" parent="1">
                    <mxGeometry x="-717.0000000000001" y="1508.5" width="56" height="13" as="geometry"/>
                </mxCell>
                <mxCell id="499" value="No" style="text;html=1;strokeColor=none;fillColor=none;align=center;verticalAlign=middle;whiteSpace=wrap;rounded=0;" vertex="1" parent="1">
                    <mxGeometry x="-649.1200000000001" y="1570" width="56" height="13" as="geometry"/>
                </mxCell>
                <mxCell id="557" style="edgeStyle=none;html=1;exitX=1;exitY=0.5;exitDx=0;exitDy=0;entryX=0.5;entryY=0;entryDx=0;entryDy=0;entryPerimeter=0;fontSize=8;" edge="1" parent="1" source="501" target="539">
                    <mxGeometry relative="1" as="geometry">
                        <Array as="points">
                            <mxPoint x="-700" y="1588"/>
                            <mxPoint x="-700" y="1580"/>
                            <mxPoint x="-660" y="1580"/>
                            <mxPoint x="-638" y="1580"/>
                        </Array>
                    </mxGeometry>
                </mxCell>
                <mxCell id="501" value="&lt;font style=&quot;font-size: 10px;&quot;&gt;Record colour of&lt;br&gt;wild card&lt;br&gt;&lt;/font&gt;" style="rounded=1;whiteSpace=wrap;html=1;absoluteArcSize=1;arcSize=14;strokeWidth=2;" vertex="1" parent="1">
                    <mxGeometry x="-805.0000000000001" y="1573" width="80" height="30" as="geometry"/>
                </mxCell>
                <mxCell id="519" style="edgeStyle=none;html=1;exitX=0.5;exitY=1;exitDx=0;exitDy=0;exitPerimeter=0;entryX=0.5;entryY=0;entryDx=0;entryDy=0;entryPerimeter=0;fontSize=8;" edge="1" parent="1" source="518" target="394">
                    <mxGeometry relative="1" as="geometry"/>
                </mxCell>
                <mxCell id="518" value="B" style="strokeWidth=2;html=1;shape=mxgraph.flowchart.start_1;whiteSpace=wrap;fontSize=8;" vertex="1" parent="1">
                    <mxGeometry x="-537.5" y="859" width="30" height="30" as="geometry"/>
                </mxCell>
                <mxCell id="522" style="edgeStyle=none;html=1;exitX=0.5;exitY=1;exitDx=0;exitDy=0;exitPerimeter=0;entryX=0.5;entryY=0;entryDx=0;entryDy=0;fontSize=8;" edge="1" parent="1" source="521" target="326">
                    <mxGeometry relative="1" as="geometry"/>
                </mxCell>
                <mxCell id="525" style="edgeStyle=none;html=1;fontSize=8;entryX=0.003;entryY=0.547;entryDx=0;entryDy=0;entryPerimeter=0;" edge="1" parent="1" source="521" target="528">
                    <mxGeometry relative="1" as="geometry">
                        <mxPoint x="-550" y="745" as="targetPoint"/>
                    </mxGeometry>
                </mxCell>
                <mxCell id="521" value="&lt;span style=&quot;font-size: 10px;&quot;&gt;did user say&lt;br&gt;draw?&lt;br&gt;&lt;/span&gt;" style="strokeWidth=2;html=1;shape=mxgraph.flowchart.decision;whiteSpace=wrap;" vertex="1" parent="1">
                    <mxGeometry x="-682.5" y="700" width="84.5" height="90" as="geometry"/>
                </mxCell>
                <mxCell id="530" style="edgeStyle=none;html=1;exitX=1;exitY=0.5;exitDx=0;exitDy=0;entryX=0;entryY=0.5;entryDx=0;entryDy=0;entryPerimeter=0;fontSize=8;" edge="1" parent="1" source="527" target="529">
                    <mxGeometry relative="1" as="geometry"/>
                </mxCell>
                <mxCell id="527" value="" style="verticalLabelPosition=bottom;verticalAlign=top;html=1;shape=process;whiteSpace=wrap;rounded=1;size=0.14;arcSize=6;" vertex="1" parent="1">
                    <mxGeometry x="-564" y="727" width="80" height="35" as="geometry"/>
                </mxCell>
                <mxCell id="528" value="&lt;font style=&quot;font-size: 8px;&quot;&gt;Give User Card&lt;/font&gt;" style="text;html=1;align=center;verticalAlign=middle;resizable=0;points=[];autosize=1;strokeColor=none;fillColor=none;" vertex="1" parent="1">
                    <mxGeometry x="-564" y="729" width="80" height="30" as="geometry"/>
                </mxCell>
                <mxCell id="534" style="edgeStyle=none;html=1;exitX=0.5;exitY=1;exitDx=0;exitDy=0;exitPerimeter=0;entryX=1;entryY=0.5;entryDx=0;entryDy=0;fontSize=8;" edge="1" parent="1" source="529" target="326">
                    <mxGeometry relative="1" as="geometry">
                        <Array as="points">
                            <mxPoint x="-426" y="830"/>
                            <mxPoint x="-460" y="830"/>
                        </Array>
                    </mxGeometry>
                </mxCell>
                <mxCell id="538" style="edgeStyle=none;html=1;exitX=1;exitY=0.5;exitDx=0;exitDy=0;exitPerimeter=0;fontSize=8;entryX=0;entryY=0.5;entryDx=0;entryDy=0;entryPerimeter=0;" edge="1" parent="1" source="529" target="554">
                    <mxGeometry relative="1" as="geometry">
                        <mxPoint x="-360" y="743.75" as="targetPoint"/>
                    </mxGeometry>
                </mxCell>
                <mxCell id="529" value="&lt;span style=&quot;font-size: 10px;&quot;&gt;did user say&lt;br&gt;pass?&lt;br&gt;&lt;/span&gt;" style="strokeWidth=2;html=1;shape=mxgraph.flowchart.decision;whiteSpace=wrap;" vertex="1" parent="1">
                    <mxGeometry x="-468.57" y="699" width="84.5" height="90" as="geometry"/>
                </mxCell>
                <mxCell id="531" value="No" style="text;html=1;strokeColor=none;fillColor=none;align=center;verticalAlign=middle;whiteSpace=wrap;rounded=0;" vertex="1" parent="1">
                    <mxGeometry x="-649.1200000000001" y="790" width="56" height="13" as="geometry"/>
                </mxCell>
                <mxCell id="532" value="Yes" style="text;html=1;strokeColor=none;fillColor=none;align=center;verticalAlign=middle;whiteSpace=wrap;rounded=0;" vertex="1" parent="1">
                    <mxGeometry x="-615.5" y="730" width="56" height="13" as="geometry"/>
                </mxCell>
                <mxCell id="535" value="Yes" style="text;html=1;strokeColor=none;fillColor=none;align=center;verticalAlign=middle;whiteSpace=wrap;rounded=0;" vertex="1" parent="1">
                    <mxGeometry x="-403.19" y="722" width="56" height="13" as="geometry"/>
                </mxCell>
                <mxCell id="536" value="No" style="text;html=1;strokeColor=none;fillColor=none;align=center;verticalAlign=middle;whiteSpace=wrap;rounded=0;" vertex="1" parent="1">
                    <mxGeometry x="-482.5000000000001" y="789" width="56" height="13" as="geometry"/>
                </mxCell>
                <mxCell id="543" style="edgeStyle=none;html=1;exitX=1;exitY=0.5;exitDx=0;exitDy=0;exitPerimeter=0;fontSize=8;entryX=0;entryY=0.5;entryDx=0;entryDy=0;" edge="1" parent="1" source="539" target="544">
                    <mxGeometry relative="1" as="geometry">
                        <mxPoint x="-560" y="1640" as="targetPoint"/>
                    </mxGeometry>
                </mxCell>
                <mxCell id="560" style="edgeStyle=none;html=1;exitX=0.5;exitY=1;exitDx=0;exitDy=0;exitPerimeter=0;fontSize=8;entryX=0.5;entryY=0;entryDx=0;entryDy=0;" edge="1" parent="1" source="539" target="562">
                    <mxGeometry relative="1" as="geometry">
                        <mxPoint x="-640" y="1700" as="targetPoint"/>
                    </mxGeometry>
                </mxCell>
                <mxCell id="539" value="&lt;span style=&quot;font-size: 10px;&quot;&gt;can robot play &lt;br&gt;a card?&lt;/span&gt;" style="strokeWidth=2;html=1;shape=mxgraph.flowchart.decision;whiteSpace=wrap;" vertex="1" parent="1">
                    <mxGeometry x="-676.75" y="1594" width="77.5" height="90" as="geometry"/>
                </mxCell>
                <mxCell id="547" style="edgeStyle=none;html=1;exitX=0.5;exitY=1;exitDx=0;exitDy=0;fontSize=8;entryX=0.5;entryY=0;entryDx=0;entryDy=0;entryPerimeter=0;" edge="1" parent="1" source="544" target="548">
                    <mxGeometry relative="1" as="geometry">
                        <mxPoint x="-537.6363636363636" y="1680" as="targetPoint"/>
                    </mxGeometry>
                </mxCell>
                <mxCell id="544" value="" style="verticalLabelPosition=bottom;verticalAlign=top;html=1;shape=process;whiteSpace=wrap;rounded=1;size=0.14;arcSize=6;" vertex="1" parent="1">
                    <mxGeometry x="-577.5" y="1622" width="80" height="35" as="geometry"/>
                </mxCell>
                <mxCell id="545" value="&lt;font style=&quot;font-size: 8px;&quot;&gt;Pick Up Card&lt;/font&gt;" style="text;html=1;align=center;verticalAlign=middle;resizable=0;points=[];autosize=1;strokeColor=none;fillColor=none;" vertex="1" parent="1">
                    <mxGeometry x="-572.5" y="1624" width="70" height="30" as="geometry"/>
                </mxCell>
                <mxCell id="549" style="edgeStyle=none;html=1;exitX=0.5;exitY=1;exitDx=0;exitDy=0;exitPerimeter=0;fontSize=8;entryX=0.5;entryY=0;entryDx=0;entryDy=0;entryPerimeter=0;" edge="1" parent="1" source="548" target="550">
                    <mxGeometry relative="1" as="geometry">
                        <mxPoint x="-536.6410256410256" y="1800" as="targetPoint"/>
                    </mxGeometry>
                </mxCell>
                <mxCell id="567" style="edgeStyle=none;html=1;exitX=0;exitY=0.5;exitDx=0;exitDy=0;exitPerimeter=0;entryX=0.5;entryY=0;entryDx=0;entryDy=0;entryPerimeter=0;fontSize=8;" edge="1" parent="1" source="548" target="565">
                    <mxGeometry relative="1" as="geometry">
                        <Array as="points">
                            <mxPoint x="-577" y="1765"/>
                            <mxPoint x="-630" y="1765"/>
                        </Array>
                    </mxGeometry>
                </mxCell>
                <mxCell id="548" value="&lt;span style=&quot;font-size: 10px;&quot;&gt;can robot play &lt;br&gt;the card?&lt;/span&gt;" style="strokeWidth=2;html=1;shape=mxgraph.flowchart.decision;whiteSpace=wrap;" vertex="1" parent="1">
                    <mxGeometry x="-577.13" y="1681.5" width="78.75" height="90" as="geometry"/>
                </mxCell>
                <mxCell id="550" value="A" style="strokeWidth=2;html=1;shape=mxgraph.flowchart.start_1;whiteSpace=wrap;fontSize=8;" vertex="1" parent="1">
                    <mxGeometry x="-552.76" y="1793" width="30" height="30" as="geometry"/>
                </mxCell>
                <mxCell id="552" value="No" style="text;html=1;strokeColor=none;fillColor=none;align=center;verticalAlign=middle;whiteSpace=wrap;rounded=0;" vertex="1" parent="1">
                    <mxGeometry x="-551" y="1771.5" width="56" height="13" as="geometry"/>
                </mxCell>
                <mxCell id="554" value="C" style="strokeWidth=2;html=1;shape=mxgraph.flowchart.start_1;whiteSpace=wrap;fontSize=8;" vertex="1" parent="1">
                    <mxGeometry x="-351.13" y="729.5" width="30" height="30" as="geometry"/>
                </mxCell>
                <mxCell id="556" style="edgeStyle=none;html=1;exitX=1;exitY=0.5;exitDx=0;exitDy=0;exitPerimeter=0;entryX=0;entryY=0.5;entryDx=0;entryDy=0;entryPerimeter=0;fontSize=8;" edge="1" parent="1" source="555" target="539">
                    <mxGeometry relative="1" as="geometry"/>
                </mxCell>
                <mxCell id="555" value="C" style="strokeWidth=2;html=1;shape=mxgraph.flowchart.start_1;whiteSpace=wrap;fontSize=8;" vertex="1" parent="1">
                    <mxGeometry x="-782.88" y="1624.5" width="30" height="30" as="geometry"/>
                </mxCell>
                <mxCell id="559" value="No" style="text;html=1;strokeColor=none;fillColor=none;align=center;verticalAlign=middle;whiteSpace=wrap;rounded=0;" vertex="1" parent="1">
                    <mxGeometry x="-618.5000000000001" y="1618.5" width="56" height="13" as="geometry"/>
                </mxCell>
                <mxCell id="566" style="edgeStyle=none;html=1;exitX=0.5;exitY=1;exitDx=0;exitDy=0;entryX=0.5;entryY=0;entryDx=0;entryDy=0;entryPerimeter=0;fontSize=8;" edge="1" parent="1" source="562" target="565">
                    <mxGeometry relative="1" as="geometry"/>
                </mxCell>
                <mxCell id="562" value="&lt;span style=&quot;font-size: 10px;&quot;&gt;Choose most optimum card&lt;/span&gt;" style="rounded=1;whiteSpace=wrap;html=1;absoluteArcSize=1;arcSize=14;strokeWidth=2;" vertex="1" parent="1">
                    <mxGeometry x="-677.7500000000001" y="1707" width="80" height="30" as="geometry"/>
                </mxCell>
                <mxCell id="563" value="Yes" style="text;html=1;strokeColor=none;fillColor=none;align=center;verticalAlign=middle;whiteSpace=wrap;rounded=0;" vertex="1" parent="1">
                    <mxGeometry x="-653.75" y="1684" width="56" height="13" as="geometry"/>
                </mxCell>
                <mxCell id="578" style="edgeStyle=none;html=1;exitX=0.5;exitY=1;exitDx=0;exitDy=0;exitPerimeter=0;fontSize=8;entryX=0.5;entryY=0;entryDx=0;entryDy=0;entryPerimeter=0;" edge="1" parent="1" source="565" target="583">
                    <mxGeometry relative="1" as="geometry">
                        <mxPoint x="-637.3809523809525" y="1880" as="targetPoint"/>
                    </mxGeometry>
                </mxCell>
                <mxCell id="593" style="edgeStyle=none;html=1;exitX=0;exitY=0.5;exitDx=0;exitDy=0;exitPerimeter=0;entryX=1;entryY=0.5;entryDx=0;entryDy=0;fontSize=8;" edge="1" parent="1" source="565" target="591">
                    <mxGeometry relative="1" as="geometry"/>
                </mxCell>
                <mxCell id="565" value="&lt;font style=&quot;font-size: 10px;&quot;&gt;is card a skip/reverse?&lt;/font&gt;" style="strokeWidth=2;html=1;shape=mxgraph.flowchart.decision;whiteSpace=wrap;" vertex="1" parent="1">
                    <mxGeometry x="-677.75" y="1765" width="80.5" height="90" as="geometry"/>
                </mxCell>
                <mxCell id="574" style="edgeStyle=none;html=1;exitX=0.5;exitY=1;exitDx=0;exitDy=0;fontSize=8;entryX=0.5;entryY=0;entryDx=0;entryDy=0;" edge="1" parent="1" source="572" target="575">
                    <mxGeometry relative="1" as="geometry">
                        <mxPoint x="410.2222222222222" y="458.5" as="targetPoint"/>
                        <Array as="points"/>
                    </mxGeometry>
                </mxCell>
                <mxCell id="572" value="&lt;span style=&quot;font-size: 10px;&quot;&gt;Pick up card from deck&lt;br&gt;&lt;/span&gt;" style="rounded=1;whiteSpace=wrap;html=1;absoluteArcSize=1;arcSize=14;strokeWidth=2;" vertex="1" parent="1">
                    <mxGeometry x="369.9999999999999" y="403.5" width="80" height="30" as="geometry"/>
                </mxCell>
                <mxCell id="615" style="edgeStyle=none;html=1;exitX=0.5;exitY=1;exitDx=0;exitDy=0;entryX=0.502;entryY=0.006;entryDx=0;entryDy=0;entryPerimeter=0;fontSize=8;" edge="1" parent="1" source="575" target="614">
                    <mxGeometry relative="1" as="geometry"/>
                </mxCell>
                <mxCell id="575" value="&lt;div style=&quot;border-color: var(--border-color);&quot;&gt;&lt;span style=&quot;font-size: 10px;&quot;&gt;Place card in playing pile&lt;/span&gt;&lt;/div&gt;" style="rounded=1;whiteSpace=wrap;html=1;absoluteArcSize=1;arcSize=14;strokeWidth=2;" vertex="1" parent="1">
                    <mxGeometry x="370" y="448.5" width="80" height="30" as="geometry"/>
                </mxCell>
                <mxCell id="576" value="C" style="strokeWidth=2;html=1;shape=mxgraph.flowchart.start_1;whiteSpace=wrap;fontSize=8;" vertex="1" parent="1">
                    <mxGeometry x="-772" y="1850" width="30" height="30" as="geometry"/>
                </mxCell>
                <mxCell id="579" value="Yes" style="text;html=1;strokeColor=none;fillColor=none;align=center;verticalAlign=middle;whiteSpace=wrap;rounded=0;" vertex="1" parent="1">
                    <mxGeometry x="-717" y="1793" width="56" height="13" as="geometry"/>
                </mxCell>
                <mxCell id="581" value="No" style="text;html=1;strokeColor=none;fillColor=none;align=center;verticalAlign=middle;whiteSpace=wrap;rounded=0;" vertex="1" parent="1">
                    <mxGeometry x="-654.7400000000001" y="1857" width="56" height="13" as="geometry"/>
                </mxCell>
                <mxCell id="595" style="edgeStyle=none;html=1;exitX=0;exitY=0.5;exitDx=0;exitDy=0;exitPerimeter=0;fontSize=8;entryX=1;entryY=0.5;entryDx=0;entryDy=0;" edge="1" parent="1" source="583" target="597">
                    <mxGeometry relative="1" as="geometry">
                        <mxPoint x="-710" y="1925.2068965517242" as="targetPoint"/>
                    </mxGeometry>
                </mxCell>
                <mxCell id="630" style="edgeStyle=none;html=1;exitX=0.5;exitY=1;exitDx=0;exitDy=0;exitPerimeter=0;fontSize=8;entryX=0.5;entryY=0;entryDx=0;entryDy=0;entryPerimeter=0;" edge="1" parent="1" source="583" target="631">
                    <mxGeometry relative="1" as="geometry">
                        <mxPoint x="-637.2758620689655" y="2000" as="targetPoint"/>
                    </mxGeometry>
                </mxCell>
                <mxCell id="583" value="&lt;font style=&quot;font-size: 10px;&quot;&gt;is card a &lt;br&gt;+2?&lt;/font&gt;" style="strokeWidth=2;html=1;shape=mxgraph.flowchart.decision;whiteSpace=wrap;" vertex="1" parent="1">
                    <mxGeometry x="-677.7499999999999" y="1880" width="80.5" height="90" as="geometry"/>
                </mxCell>
                <mxCell id="584" value="Robot Play" style="text;html=1;align=center;verticalAlign=middle;resizable=0;points=[];autosize=1;strokeColor=none;fillColor=none;" vertex="1" parent="1">
                    <mxGeometry x="370" y="320" width="80" height="30" as="geometry"/>
                </mxCell>
                <mxCell id="588" style="edgeStyle=none;html=1;exitX=0.5;exitY=1;exitDx=0;exitDy=0;exitPerimeter=0;entryX=0.5;entryY=0;entryDx=0;entryDy=0;fontSize=8;" edge="1" parent="1" source="585" target="572">
                    <mxGeometry relative="1" as="geometry"/>
                </mxCell>
                <mxCell id="585" value="&lt;font style=&quot;font-size: 10px;&quot;&gt;Start&lt;/font&gt;" style="strokeWidth=2;html=1;shape=mxgraph.flowchart.start_1;whiteSpace=wrap;" vertex="1" parent="1">
                    <mxGeometry x="370" y="360" width="80" height="22.5" as="geometry"/>
                </mxCell>
                <mxCell id="589" value="&lt;font style=&quot;font-size: 10px;&quot;&gt;End&lt;/font&gt;" style="strokeWidth=2;html=1;shape=mxgraph.flowchart.start_1;whiteSpace=wrap;" vertex="1" parent="1">
                    <mxGeometry x="370" y="545" width="80" height="22.5" as="geometry"/>
                </mxCell>
                <mxCell id="594" style="edgeStyle=none;html=1;exitX=0.5;exitY=1;exitDx=0;exitDy=0;entryX=0.5;entryY=0;entryDx=0;entryDy=0;entryPerimeter=0;fontSize=8;" edge="1" parent="1" source="591" target="576">
                    <mxGeometry relative="1" as="geometry"/>
                </mxCell>
                <mxCell id="591" value="" style="verticalLabelPosition=bottom;verticalAlign=top;html=1;shape=process;whiteSpace=wrap;rounded=1;size=0.14;arcSize=6;" vertex="1" parent="1">
                    <mxGeometry x="-797" y="1792.5" width="80" height="35" as="geometry"/>
                </mxCell>
                <mxCell id="592" value="&lt;font style=&quot;font-size: 8px;&quot;&gt;Robot Play&amp;nbsp;&lt;/font&gt;" style="text;html=1;align=center;verticalAlign=middle;resizable=0;points=[];autosize=1;strokeColor=none;fillColor=none;" vertex="1" parent="1">
                    <mxGeometry x="-787" y="1795" width="60" height="30" as="geometry"/>
                </mxCell>
                <mxCell id="596" value="Yes" style="text;html=1;strokeColor=none;fillColor=none;align=center;verticalAlign=middle;whiteSpace=wrap;rounded=0;" vertex="1" parent="1">
                    <mxGeometry x="-720" y="1908.5" width="56" height="13" as="geometry"/>
                </mxCell>
                <mxCell id="617" style="edgeStyle=none;html=1;exitX=0.505;exitY=1.066;exitDx=0;exitDy=0;fontSize=8;exitPerimeter=0;entryX=0.5;entryY=0;entryDx=0;entryDy=0;" edge="1" parent="1" source="598" target="625">
                    <mxGeometry relative="1" as="geometry">
                        <mxPoint x="-756" y="1960" as="targetPoint"/>
                        <mxPoint x="-766" y="1942.5" as="sourcePoint"/>
                    </mxGeometry>
                </mxCell>
                <mxCell id="597" value="" style="verticalLabelPosition=bottom;verticalAlign=top;html=1;shape=process;whiteSpace=wrap;rounded=1;size=0.14;arcSize=6;" vertex="1" parent="1">
                    <mxGeometry x="-796" y="1907.5" width="80" height="35" as="geometry"/>
                </mxCell>
                <mxCell id="598" value="&lt;font style=&quot;font-size: 8px;&quot;&gt;Robot Play&amp;nbsp;&lt;/font&gt;" style="text;html=1;align=center;verticalAlign=middle;resizable=0;points=[];autosize=1;strokeColor=none;fillColor=none;" vertex="1" parent="1">
                    <mxGeometry x="-786" y="1910" width="60" height="30" as="geometry"/>
                </mxCell>
                <mxCell id="603" style="edgeStyle=none;html=1;exitX=0;exitY=0.5;exitDx=0;exitDy=0;exitPerimeter=0;entryX=0;entryY=0.5;entryDx=0;entryDy=0;entryPerimeter=0;fontSize=8;" edge="1" parent="1" source="600">
                    <mxGeometry relative="1" as="geometry">
                        <mxPoint x="46" y="893.75" as="targetPoint"/>
                        <Array as="points">
                            <mxPoint y="450"/>
                            <mxPoint y="894"/>
                        </Array>
                    </mxGeometry>
                </mxCell>
                <mxCell id="600" value="&lt;span style=&quot;font-size: 10px;&quot;&gt;does user &lt;br&gt;only&amp;nbsp;&lt;/span&gt;&lt;span style=&quot;font-size: 10px;&quot;&gt;have 1 &lt;br&gt;card&amp;nbsp;left?&lt;/span&gt;&lt;span style=&quot;font-size: 10px;&quot;&gt;&lt;br&gt;&lt;/span&gt;" style="strokeWidth=2;html=1;shape=mxgraph.flowchart.decision;whiteSpace=wrap;" vertex="1" parent="1">
                    <mxGeometry x="38.870000000000005" y="404" width="92.25" height="93" as="geometry"/>
                </mxCell>
                <mxCell id="604" value="Yes" style="text;html=1;strokeColor=none;fillColor=none;align=center;verticalAlign=middle;whiteSpace=wrap;rounded=0;" vertex="1" parent="1">
                    <mxGeometry x="69" y="498" width="56" height="13" as="geometry"/>
                </mxCell>
                <mxCell id="606" value="No" style="text;html=1;strokeColor=none;fillColor=none;align=center;verticalAlign=middle;whiteSpace=wrap;rounded=0;" vertex="1" parent="1">
                    <mxGeometry y="436.5" width="56" height="13" as="geometry"/>
                </mxCell>
                <mxCell id="697" style="edgeStyle=none;html=1;exitX=0;exitY=0.5;exitDx=0;exitDy=0;exitPerimeter=0;entryX=0;entryY=0.5;entryDx=0;entryDy=0;entryPerimeter=0;fontSize=8;" edge="1" parent="1" source="607" target="378">
                    <mxGeometry relative="1" as="geometry">
                        <Array as="points">
                            <mxPoint x="168" y="448"/>
                            <mxPoint x="168" y="714"/>
                            <mxPoint x="168" y="897"/>
                        </Array>
                    </mxGeometry>
                </mxCell>
                <mxCell id="607" value="&lt;span style=&quot;font-size: 10px;&quot;&gt;does robot&lt;br&gt;only&amp;nbsp;&lt;/span&gt;&lt;span style=&quot;font-size: 10px;&quot;&gt;have 1 &lt;br&gt;card&amp;nbsp;left?&lt;/span&gt;&lt;span style=&quot;font-size: 10px;&quot;&gt;&lt;br&gt;&lt;/span&gt;" style="strokeWidth=2;html=1;shape=mxgraph.flowchart.decision;whiteSpace=wrap;" vertex="1" parent="1">
                    <mxGeometry x="208.88" y="401.5" width="92.25" height="93" as="geometry"/>
                </mxCell>
                <mxCell id="616" style="edgeStyle=none;html=1;exitX=0.491;exitY=1.073;exitDx=0;exitDy=0;fontSize=8;exitPerimeter=0;" edge="1" parent="1" target="589">
                    <mxGeometry relative="1" as="geometry">
                        <mxPoint x="409.46000000000004" y="524.19" as="sourcePoint"/>
                    </mxGeometry>
                </mxCell>
                <mxCell id="613" value="" style="verticalLabelPosition=bottom;verticalAlign=top;html=1;shape=process;whiteSpace=wrap;rounded=1;size=0.14;arcSize=6;" vertex="1" parent="1">
                    <mxGeometry x="370" y="491.5" width="80" height="35" as="geometry"/>
                </mxCell>
                <mxCell id="614" value="&lt;span style=&quot;font-size: 8px;&quot;&gt;Robot UNO&lt;/span&gt;" style="text;html=1;align=center;verticalAlign=middle;resizable=0;points=[];autosize=1;strokeColor=none;fillColor=none;" vertex="1" parent="1">
                    <mxGeometry x="380" y="494" width="60" height="30" as="geometry"/>
                </mxCell>
                <mxCell id="624" style="edgeStyle=none;html=1;exitX=0.5;exitY=1;exitDx=0;exitDy=0;exitPerimeter=0;entryX=0.5;entryY=0;entryDx=0;entryDy=0;entryPerimeter=0;fontSize=8;" edge="1" parent="1" source="620" target="689">
                    <mxGeometry relative="1" as="geometry">
                        <mxPoint x="-748.5600000000001" y="2127" as="targetPoint"/>
                    </mxGeometry>
                </mxCell>
                <mxCell id="629" style="edgeStyle=none;html=1;exitX=0;exitY=0.5;exitDx=0;exitDy=0;exitPerimeter=0;fontSize=8;entryX=0.007;entryY=0.379;entryDx=0;entryDy=0;entryPerimeter=0;" edge="1" parent="1" source="620" target="626">
                    <mxGeometry relative="1" as="geometry">
                        <mxPoint x="-870" y="1970" as="targetPoint"/>
                        <Array as="points">
                            <mxPoint x="-820" y="2059"/>
                            <mxPoint x="-820" y="1976"/>
                        </Array>
                    </mxGeometry>
                </mxCell>
                <mxCell id="620" value="&lt;span style=&quot;font-size: 10px;&quot;&gt;did player receive 2&lt;br&gt;&lt;/span&gt;&lt;font style=&quot;font-size: 10px;&quot;&gt;cards?&lt;/font&gt;" style="strokeWidth=2;html=1;shape=mxgraph.flowchart.decision;whiteSpace=wrap;" vertex="1" parent="1">
                    <mxGeometry x="-795.5" y="2014" width="78.75" height="90" as="geometry"/>
                </mxCell>
                <mxCell id="621" value="No" style="text;html=1;strokeColor=none;fillColor=none;align=center;verticalAlign=middle;whiteSpace=wrap;rounded=0;" vertex="1" parent="1">
                    <mxGeometry x="-833.88" y="2034" width="56" height="13" as="geometry"/>
                </mxCell>
                <mxCell id="622" value="Yes" style="text;html=1;strokeColor=none;fillColor=none;align=center;verticalAlign=middle;whiteSpace=wrap;rounded=0;" vertex="1" parent="1">
                    <mxGeometry x="-808.88" y="2104" width="56" height="13" as="geometry"/>
                </mxCell>
                <mxCell id="628" style="edgeStyle=none;html=1;exitX=0.5;exitY=1;exitDx=0;exitDy=0;entryX=0.5;entryY=0;entryDx=0;entryDy=0;entryPerimeter=0;fontSize=8;" edge="1" parent="1" source="625" target="620">
                    <mxGeometry relative="1" as="geometry"/>
                </mxCell>
                <mxCell id="625" value="" style="verticalLabelPosition=bottom;verticalAlign=top;html=1;shape=process;whiteSpace=wrap;rounded=1;size=0.14;arcSize=6;" vertex="1" parent="1">
                    <mxGeometry x="-795.75" y="1962" width="80" height="35" as="geometry"/>
                </mxCell>
                <mxCell id="626" value="&lt;font style=&quot;font-size: 8px;&quot;&gt;Give User Card&lt;/font&gt;" style="text;html=1;align=center;verticalAlign=middle;resizable=0;points=[];autosize=1;strokeColor=none;fillColor=none;" vertex="1" parent="1">
                    <mxGeometry x="-796" y="1964.5" width="80" height="30" as="geometry"/>
                </mxCell>
                <mxCell id="633" style="edgeStyle=none;html=1;exitX=1;exitY=0.5;exitDx=0;exitDy=0;exitPerimeter=0;fontSize=8;entryX=0;entryY=0.5;entryDx=0;entryDy=0;" edge="1" parent="1" source="631" target="636">
                    <mxGeometry relative="1" as="geometry">
                        <mxPoint x="-570" y="2042.1428571428573" as="targetPoint"/>
                    </mxGeometry>
                </mxCell>
                <mxCell id="664" style="edgeStyle=none;html=1;exitX=0.5;exitY=1;exitDx=0;exitDy=0;exitPerimeter=0;fontSize=8;entryX=0.5;entryY=0;entryDx=0;entryDy=0;entryPerimeter=0;" edge="1" parent="1" source="631" target="665">
                    <mxGeometry relative="1" as="geometry">
                        <mxPoint x="-637.2758620689655" y="2130" as="targetPoint"/>
                    </mxGeometry>
                </mxCell>
                <mxCell id="631" value="&lt;font style=&quot;font-size: 10px;&quot;&gt;is card a &lt;br&gt;+4?&lt;/font&gt;" style="strokeWidth=2;html=1;shape=mxgraph.flowchart.decision;whiteSpace=wrap;" vertex="1" parent="1">
                    <mxGeometry x="-677.7499999999999" y="1997" width="80.5" height="90" as="geometry"/>
                </mxCell>
                <mxCell id="632" value="No" style="text;html=1;strokeColor=none;fillColor=none;align=center;verticalAlign=middle;whiteSpace=wrap;rounded=0;" vertex="1" parent="1">
                    <mxGeometry x="-676.7500000000001" y="1970" width="56" height="13" as="geometry"/>
                </mxCell>
                <mxCell id="634" value="Yes" style="text;html=1;strokeColor=none;fillColor=none;align=center;verticalAlign=middle;whiteSpace=wrap;rounded=0;" vertex="1" parent="1">
                    <mxGeometry x="-620.75" y="2021" width="56" height="13" as="geometry"/>
                </mxCell>
                <mxCell id="635" style="edgeStyle=none;html=1;exitX=0.505;exitY=1.066;exitDx=0;exitDy=0;fontSize=8;exitPerimeter=0;entryX=0.5;entryY=0;entryDx=0;entryDy=0;" edge="1" parent="1" source="637" target="638">
                    <mxGeometry relative="1" as="geometry">
                        <mxPoint x="-524.25" y="2077" as="targetPoint"/>
                        <mxPoint x="-534.25" y="2059.5" as="sourcePoint"/>
                    </mxGeometry>
                </mxCell>
                <mxCell id="636" value="" style="verticalLabelPosition=bottom;verticalAlign=top;html=1;shape=process;whiteSpace=wrap;rounded=1;size=0.14;arcSize=6;" vertex="1" parent="1">
                    <mxGeometry x="-564.25" y="2024.5" width="80" height="35" as="geometry"/>
                </mxCell>
                <mxCell id="637" value="&lt;font style=&quot;font-size: 8px;&quot;&gt;Robot Play&amp;nbsp;&lt;/font&gt;" style="text;html=1;align=center;verticalAlign=middle;resizable=0;points=[];autosize=1;strokeColor=none;fillColor=none;" vertex="1" parent="1">
                    <mxGeometry x="-554.25" y="2027" width="60" height="30" as="geometry"/>
                </mxCell>
                <mxCell id="641" style="edgeStyle=none;html=1;exitX=0.5;exitY=1;exitDx=0;exitDy=0;entryX=0.5;entryY=0;entryDx=0;entryDy=0;entryPerimeter=0;fontSize=8;" edge="1" parent="1" source="638" target="640">
                    <mxGeometry relative="1" as="geometry"/>
                </mxCell>
                <mxCell id="638" value="" style="verticalLabelPosition=bottom;verticalAlign=top;html=1;shape=process;whiteSpace=wrap;rounded=1;size=0.14;arcSize=6;" vertex="1" parent="1">
                    <mxGeometry x="-564" y="2079" width="80" height="35" as="geometry"/>
                </mxCell>
                <mxCell id="639" value="&lt;font style=&quot;font-size: 8px;&quot;&gt;Give User Card&lt;/font&gt;" style="text;html=1;align=center;verticalAlign=middle;resizable=0;points=[];autosize=1;strokeColor=none;fillColor=none;" vertex="1" parent="1">
                    <mxGeometry x="-564.25" y="2081.5" width="80" height="30" as="geometry"/>
                </mxCell>
                <mxCell id="643" style="edgeStyle=none;html=1;exitX=1;exitY=0.5;exitDx=0;exitDy=0;exitPerimeter=0;entryX=1.002;entryY=0.44;entryDx=0;entryDy=0;entryPerimeter=0;fontSize=8;" edge="1" parent="1" source="640" target="639">
                    <mxGeometry relative="1" as="geometry">
                        <Array as="points">
                            <mxPoint x="-450" y="2180"/>
                            <mxPoint x="-450" y="2095"/>
                        </Array>
                    </mxGeometry>
                </mxCell>
                <mxCell id="646" style="edgeStyle=none;html=1;exitX=0.5;exitY=1;exitDx=0;exitDy=0;exitPerimeter=0;entryX=0.502;entryY=-0.057;entryDx=0;entryDy=0;entryPerimeter=0;fontSize=8;" edge="1" parent="1" source="640" target="661">
                    <mxGeometry relative="1" as="geometry">
                        <mxPoint x="-524.5000000000001" y="2244" as="targetPoint"/>
                    </mxGeometry>
                </mxCell>
                <mxCell id="640" value="&lt;span style=&quot;font-size: 10px;&quot;&gt;did player receive 4&lt;br&gt;&lt;/span&gt;&lt;font style=&quot;font-size: 10px;&quot;&gt;cards?&lt;/font&gt;" style="strokeWidth=2;html=1;shape=mxgraph.flowchart.decision;whiteSpace=wrap;" vertex="1" parent="1">
                    <mxGeometry x="-563.75" y="2135" width="78.75" height="90" as="geometry"/>
                </mxCell>
                <mxCell id="644" value="No" style="text;html=1;strokeColor=none;fillColor=none;align=center;verticalAlign=middle;whiteSpace=wrap;rounded=0;" vertex="1" parent="1">
                    <mxGeometry x="-502.13" y="2161" width="56" height="13" as="geometry"/>
                </mxCell>
                <mxCell id="645" value="Yes" style="text;html=1;strokeColor=none;fillColor=none;align=center;verticalAlign=middle;whiteSpace=wrap;rounded=0;" vertex="1" parent="1">
                    <mxGeometry x="-530" y="2225" width="56" height="13" as="geometry"/>
                </mxCell>
                <mxCell id="649" value="Colour Selection" style="text;html=1;align=center;verticalAlign=middle;resizable=0;points=[];autosize=1;strokeColor=none;fillColor=none;" vertex="1" parent="1">
                    <mxGeometry x="485" y="320" width="110" height="30" as="geometry"/>
                </mxCell>
                <mxCell id="650" style="edgeStyle=none;html=1;exitX=0.5;exitY=1;exitDx=0;exitDy=0;fontSize=8;entryX=0.5;entryY=0;entryDx=0;entryDy=0;" edge="1" parent="1" source="651" target="653">
                    <mxGeometry relative="1" as="geometry">
                        <mxPoint x="540.2222222222222" y="458" as="targetPoint"/>
                        <Array as="points"/>
                    </mxGeometry>
                </mxCell>
                <mxCell id="651" value="&lt;span style=&quot;font-size: 10px;&quot;&gt;Analyse Robot Deck&lt;br&gt;&lt;/span&gt;" style="rounded=1;whiteSpace=wrap;html=1;absoluteArcSize=1;arcSize=14;strokeWidth=2;" vertex="1" parent="1">
                    <mxGeometry x="499.9999999999999" y="403" width="80" height="30" as="geometry"/>
                </mxCell>
                <mxCell id="680" style="edgeStyle=none;html=1;exitX=0.5;exitY=1;exitDx=0;exitDy=0;entryX=0.5;entryY=0;entryDx=0;entryDy=0;fontSize=8;" edge="1" parent="1" source="653" target="679">
                    <mxGeometry relative="1" as="geometry"/>
                </mxCell>
                <mxCell id="653" value="&lt;div style=&quot;border-color: var(--border-color);&quot;&gt;&lt;span style=&quot;font-size: 10px;&quot;&gt;Select Most Optimum Colour&lt;/span&gt;&lt;/div&gt;" style="rounded=1;whiteSpace=wrap;html=1;absoluteArcSize=1;arcSize=14;strokeWidth=2;" vertex="1" parent="1">
                    <mxGeometry x="500" y="448" width="80" height="30" as="geometry"/>
                </mxCell>
                <mxCell id="654" style="edgeStyle=none;html=1;exitX=0.5;exitY=1;exitDx=0;exitDy=0;exitPerimeter=0;entryX=0.5;entryY=0;entryDx=0;entryDy=0;fontSize=8;" edge="1" parent="1" source="655" target="651">
                    <mxGeometry relative="1" as="geometry"/>
                </mxCell>
                <mxCell id="655" value="&lt;font style=&quot;font-size: 10px;&quot;&gt;Start&lt;/font&gt;" style="strokeWidth=2;html=1;shape=mxgraph.flowchart.start_1;whiteSpace=wrap;" vertex="1" parent="1">
                    <mxGeometry x="500" y="359.5" width="80" height="22.5" as="geometry"/>
                </mxCell>
                <mxCell id="656" value="&lt;font style=&quot;font-size: 10px;&quot;&gt;End&lt;/font&gt;" style="strokeWidth=2;html=1;shape=mxgraph.flowchart.start_1;whiteSpace=wrap;" vertex="1" parent="1">
                    <mxGeometry x="500" y="549.5" width="80" height="22.5" as="geometry"/>
                </mxCell>
                <mxCell id="663" style="edgeStyle=none;html=1;exitX=0.5;exitY=1;exitDx=0;exitDy=0;entryX=0.5;entryY=0;entryDx=0;entryDy=0;entryPerimeter=0;fontSize=8;" edge="1" parent="1" source="660" target="690">
                    <mxGeometry relative="1" as="geometry">
                        <mxPoint x="-524" y="2295.5" as="targetPoint"/>
                    </mxGeometry>
                </mxCell>
                <mxCell id="660" value="" style="verticalLabelPosition=bottom;verticalAlign=top;html=1;shape=process;whiteSpace=wrap;rounded=1;size=0.14;arcSize=6;" vertex="1" parent="1">
                    <mxGeometry x="-564.25" y="2246" width="80" height="35" as="geometry"/>
                </mxCell>
                <mxCell id="661" value="&lt;font style=&quot;font-size: 8px;&quot;&gt;Colour Selection&lt;/font&gt;" style="text;html=1;align=center;verticalAlign=middle;resizable=0;points=[];autosize=1;strokeColor=none;fillColor=none;" vertex="1" parent="1">
                    <mxGeometry x="-564.25" y="2248.5" width="80" height="30" as="geometry"/>
                </mxCell>
                <mxCell id="666" style="edgeStyle=none;html=1;exitX=0;exitY=0.5;exitDx=0;exitDy=0;exitPerimeter=0;fontSize=8;entryX=1.008;entryY=0.564;entryDx=0;entryDy=0;entryPerimeter=0;" edge="1" parent="1" source="665" target="670">
                    <mxGeometry relative="1" as="geometry">
                        <mxPoint x="-710" y="2188.904761904762" as="targetPoint"/>
                    </mxGeometry>
                </mxCell>
                <mxCell id="667" style="edgeStyle=none;html=1;exitX=0.5;exitY=1;exitDx=0;exitDy=0;exitPerimeter=0;fontSize=8;entryX=0.5;entryY=0;entryDx=0;entryDy=0;" edge="1" parent="1" source="665" target="671">
                    <mxGeometry relative="1" as="geometry">
                        <mxPoint x="-637.047619047619" y="2260" as="targetPoint"/>
                    </mxGeometry>
                </mxCell>
                <mxCell id="665" value="&lt;font style=&quot;font-size: 10px;&quot;&gt;is card a &lt;br&gt;wild?&lt;/font&gt;" style="strokeWidth=2;html=1;shape=mxgraph.flowchart.decision;whiteSpace=wrap;" vertex="1" parent="1">
                    <mxGeometry x="-677.2499999999999" y="2144" width="80.5" height="90" as="geometry"/>
                </mxCell>
                <mxCell id="676" style="edgeStyle=none;html=1;exitX=0.5;exitY=1;exitDx=0;exitDy=0;entryX=0;entryY=0.5;entryDx=0;entryDy=0;fontSize=8;" edge="1" parent="1" source="669" target="671">
                    <mxGeometry relative="1" as="geometry">
                        <Array as="points">
                            <mxPoint x="-750" y="2280"/>
                        </Array>
                    </mxGeometry>
                </mxCell>
                <mxCell id="669" value="" style="verticalLabelPosition=bottom;verticalAlign=top;html=1;shape=process;whiteSpace=wrap;rounded=1;size=0.14;arcSize=6;" vertex="1" parent="1">
                    <mxGeometry x="-791" y="2169" width="80" height="35" as="geometry"/>
                </mxCell>
                <mxCell id="670" value="&lt;font style=&quot;font-size: 8px;&quot;&gt;Colour Selection&lt;/font&gt;" style="text;html=1;align=center;verticalAlign=middle;resizable=0;points=[];autosize=1;strokeColor=none;fillColor=none;" vertex="1" parent="1">
                    <mxGeometry x="-791" y="2171.5" width="80" height="30" as="geometry"/>
                </mxCell>
                <mxCell id="686" style="edgeStyle=none;html=1;exitX=0.5;exitY=1;exitDx=0;exitDy=0;entryX=0.5;entryY=0;entryDx=0;entryDy=0;entryPerimeter=0;fontSize=8;" edge="1" parent="1" source="671" target="684">
                    <mxGeometry relative="1" as="geometry"/>
                </mxCell>
                <mxCell id="671" value="" style="verticalLabelPosition=bottom;verticalAlign=top;html=1;shape=process;whiteSpace=wrap;rounded=1;size=0.14;arcSize=6;" vertex="1" parent="1">
                    <mxGeometry x="-677" y="2263.5" width="80" height="35" as="geometry"/>
                </mxCell>
                <mxCell id="672" value="&lt;font style=&quot;font-size: 8px;&quot;&gt;Robot Play&amp;nbsp;&lt;/font&gt;" style="text;html=1;align=center;verticalAlign=middle;resizable=0;points=[];autosize=1;strokeColor=none;fillColor=none;" vertex="1" parent="1">
                    <mxGeometry x="-667" y="2266" width="60" height="30" as="geometry"/>
                </mxCell>
                <mxCell id="673" value="No" style="text;html=1;strokeColor=none;fillColor=none;align=center;verticalAlign=middle;whiteSpace=wrap;rounded=0;" vertex="1" parent="1">
                    <mxGeometry x="-682.2500000000001" y="2087" width="56" height="13" as="geometry"/>
                </mxCell>
                <mxCell id="674" value="No" style="text;html=1;strokeColor=none;fillColor=none;align=center;verticalAlign=middle;whiteSpace=wrap;rounded=0;" vertex="1" parent="1">
                    <mxGeometry x="-654.7400000000001" y="2241" width="56" height="13" as="geometry"/>
                </mxCell>
                <mxCell id="675" value="Yes" style="text;html=1;strokeColor=none;fillColor=none;align=center;verticalAlign=middle;whiteSpace=wrap;rounded=0;" vertex="1" parent="1">
                    <mxGeometry x="-721.25" y="2169" width="56" height="13" as="geometry"/>
                </mxCell>
                <mxCell id="681" style="edgeStyle=none;html=1;exitX=0.5;exitY=1;exitDx=0;exitDy=0;entryX=0.5;entryY=0;entryDx=0;entryDy=0;entryPerimeter=0;fontSize=8;" edge="1" parent="1" source="679" target="656">
                    <mxGeometry relative="1" as="geometry"/>
                </mxCell>
                <mxCell id="679" value="&lt;span style=&quot;font-size: 10px;&quot;&gt;Announce selected&lt;br&gt;card colour&lt;br&gt;&lt;/span&gt;" style="shape=parallelogram;html=1;strokeWidth=2;perimeter=parallelogramPerimeter;whiteSpace=wrap;rounded=1;arcSize=12;size=0.23;align=center;" vertex="1" parent="1">
                    <mxGeometry x="475" y="494" width="130" height="40" as="geometry"/>
                </mxCell>
                <mxCell id="682" value="Yes" style="text;html=1;strokeColor=none;fillColor=none;align=center;verticalAlign=middle;whiteSpace=wrap;rounded=0;" vertex="1" parent="1">
                    <mxGeometry x="-628.13" y="1750" width="56" height="13" as="geometry"/>
                </mxCell>
                <mxCell id="683" value="No" style="text;html=1;strokeColor=none;fillColor=none;align=center;verticalAlign=middle;whiteSpace=wrap;rounded=0;" vertex="1" parent="1">
                    <mxGeometry x="-685.9300000000001" y="1454" width="56" height="13" as="geometry"/>
                </mxCell>
                <mxCell id="687" style="edgeStyle=none;html=1;exitX=1;exitY=0.5;exitDx=0;exitDy=0;exitPerimeter=0;fontSize=8;entryX=0;entryY=0.5;entryDx=0;entryDy=0;entryPerimeter=0;" edge="1" parent="1" source="684" target="692">
                    <mxGeometry relative="1" as="geometry">
                        <mxPoint x="-570" y="2375.285714285714" as="targetPoint"/>
                    </mxGeometry>
                </mxCell>
                <mxCell id="693" style="edgeStyle=none;html=1;exitX=0;exitY=0.5;exitDx=0;exitDy=0;exitPerimeter=0;fontSize=8;entryX=1;entryY=0.5;entryDx=0;entryDy=0;entryPerimeter=0;" edge="1" parent="1" source="684" target="694">
                    <mxGeometry relative="1" as="geometry">
                        <mxPoint x="-710" y="2374.862068965517" as="targetPoint"/>
                    </mxGeometry>
                </mxCell>
                <mxCell id="684" value="&lt;span style=&quot;font-size: 10px;&quot;&gt;does &lt;br&gt;robot have&lt;br&gt;no cards &lt;br&gt;left?&lt;br&gt;&lt;/span&gt;" style="strokeWidth=2;html=1;shape=mxgraph.flowchart.decision;whiteSpace=wrap;" vertex="1" parent="1">
                    <mxGeometry x="-676.7499999999999" y="2330" width="80.5" height="90" as="geometry"/>
                </mxCell>
                <mxCell id="689" value="C" style="strokeWidth=2;html=1;shape=mxgraph.flowchart.start_1;whiteSpace=wrap;fontSize=8;" vertex="1" parent="1">
                    <mxGeometry x="-770.75" y="2120" width="30" height="30" as="geometry"/>
                </mxCell>
                <mxCell id="690" value="C" style="strokeWidth=2;html=1;shape=mxgraph.flowchart.start_1;whiteSpace=wrap;fontSize=8;" vertex="1" parent="1">
                    <mxGeometry x="-539" y="2300" width="30" height="30" as="geometry"/>
                </mxCell>
                <mxCell id="692" value="B" style="strokeWidth=2;html=1;shape=mxgraph.flowchart.start_1;whiteSpace=wrap;fontSize=8;" vertex="1" parent="1">
                    <mxGeometry x="-562.5" y="2360" width="30" height="30" as="geometry"/>
                </mxCell>
                <mxCell id="694" value="A" style="strokeWidth=2;html=1;shape=mxgraph.flowchart.start_1;whiteSpace=wrap;fontSize=8;" vertex="1" parent="1">
                    <mxGeometry x="-742" y="2360" width="30" height="30" as="geometry"/>
                </mxCell>
                <mxCell id="696" value="Yes" style="text;html=1;strokeColor=none;fillColor=none;align=center;verticalAlign=middle;whiteSpace=wrap;rounded=0;" vertex="1" parent="1">
                    <mxGeometry x="254" y="494" width="56" height="13" as="geometry"/>
                </mxCell>
                <mxCell id="698" value="No" style="text;html=1;strokeColor=none;fillColor=none;align=center;verticalAlign=middle;whiteSpace=wrap;rounded=0;" vertex="1" parent="1">
                    <mxGeometry x="159.5" y="431.5" width="56" height="13" as="geometry"/>
                </mxCell>
                <mxCell id="710" value="" style="strokeWidth=2;html=1;shape=mxgraph.flowchart.annotation_1;align=left;pointerEvents=1;fontSize=8;" vertex="1" parent="1">
                    <mxGeometry x="-321.13" y="110" width="50" height="100" as="geometry"/>
                </mxCell>
                <mxCell id="711" value="" style="endArrow=none;html=1;fontSize=8;" edge="1" parent="1">
                    <mxGeometry width="50" height="50" relative="1" as="geometry">
                        <mxPoint x="-840" y="160" as="sourcePoint"/>
                        <mxPoint x="-840" y="2490" as="targetPoint"/>
                    </mxGeometry>
                </mxCell>
                <mxCell id="712" value="" style="endArrow=none;html=1;fontSize=8;" edge="1" parent="1">
                    <mxGeometry width="50" height="50" relative="1" as="geometry">
                        <mxPoint x="-321.13" y="181" as="sourcePoint"/>
                        <mxPoint x="-321.13" y="2511" as="targetPoint"/>
                    </mxGeometry>
                </mxCell>
                <mxCell id="713" value="No" style="text;html=1;strokeColor=none;fillColor=none;align=center;verticalAlign=middle;whiteSpace=wrap;rounded=0;" vertex="1" parent="1">
                    <mxGeometry x="-654" y="1343" width="56" height="13" as="geometry"/>
                </mxCell>
            </root>
        </mxGraphModel>
    </diagram>
</mxfile>